<svg width="1600" height="4560" xmlns="http://www.w3.org/2000/svg">
<circle cx="12.0" cy="8.0" r="0.4" fill="black" />
<circle cx="12.0" cy="20.0" r="0.4" fill="black" />
<circle cx="12.0" cy="32.0" r="0.4" fill="black" />
<circle cx="28.0" cy="8.0" r="4.0" fill="black" />
<circle cx="28.0" cy="20.0" r="0.4" fill="black" />
<circle cx="28.0" cy="32.0" r="4.0" fill="black" /><text x="10" y="48" font-size="10">MAY</text>
<circle cx="52.0" cy="8.0" r="4.0" fill="black" />
<circle cx="52.0" cy="20.0" r="4.0" fill="black" />
<circle cx="52.0" cy="32.0" r="0.4" fill="black" />
<circle cx="68.0" cy="8.0" r="4.0" fill="black" />
<circle cx="68.0" cy="20.0" r="0.4" fill="black" />
<circle cx="68.0" cy="32.0" r="0.4" fill="black" /><text x="50" y="48" font-size="10">F</text>
<circle cx="92.0" cy="8.0" r="4.0" fill="black" />
<circle cx="92.0" cy="20.0" r="0.4" fill="black" />
<circle cx="92.0" cy="32.0" r="0.4" fill="black" />
<circle cx="108.0" cy="8.0" r="0.4" fill="black" />
<circle cx="108.0" cy="20.0" r="0.4" fill="black" />
<circle cx="108.0" cy="32.0" r="0.4" fill="black" /><text x="90" y="48" font-size="10">a</text>
<circle cx="132.0" cy="8.0" r="4.0" fill="black" />
<circle cx="132.0" cy="20.0" r="0.4" fill="black" />
<circle cx="132.0" cy="32.0" r="0.4" fill="black" />
<circle cx="148.0" cy="8.0" r="4.0" fill="black" />
<circle cx="148.0" cy="20.0" r="0.4" fill="black" />
<circle cx="148.0" cy="32.0" r="0.4" fill="black" /><text x="130" y="48" font-size="10">c</text>
<circle cx="172.0" cy="8.0" r="4.0" fill="black" />
<circle cx="172.0" cy="20.0" r="0.4" fill="black" />
<circle cx="172.0" cy="32.0" r="4.0" fill="black" />
<circle cx="188.0" cy="8.0" r="0.4" fill="black" />
<circle cx="188.0" cy="20.0" r="0.4" fill="black" />
<circle cx="188.0" cy="32.0" r="4.0" fill="black" /><text x="170" y="48" font-size="10">u</text>
<circle cx="212.0" cy="8.0" r="4.0" fill="black" />
<circle cx="212.0" cy="20.0" r="0.4" fill="black" />
<circle cx="212.0" cy="32.0" r="4.0" fill="black" />
<circle cx="228.0" cy="8.0" r="4.0" fill="black" />
<circle cx="228.0" cy="20.0" r="4.0" fill="black" />
<circle cx="228.0" cy="32.0" r="0.4" fill="black" /><text x="210" y="48" font-size="10">n</text>
<circle cx="252.0" cy="8.0" r="4.0" fill="black" />
<circle cx="252.0" cy="20.0" r="0.4" fill="black" />
<circle cx="252.0" cy="32.0" r="0.4" fill="black" />
<circle cx="268.0" cy="8.0" r="4.0" fill="black" />
<circle cx="268.0" cy="20.0" r="4.0" fill="black" />
<circle cx="268.0" cy="32.0" r="0.4" fill="black" /><text x="250" y="48" font-size="10">d</text>
<circle cx="292.0" cy="8.0" r="4.0" fill="black" />
<circle cx="292.0" cy="20.0" r="0.4" fill="black" />
<circle cx="292.0" cy="32.0" r="4.0" fill="black" />
<circle cx="308.0" cy="8.0" r="0.4" fill="black" />
<circle cx="308.0" cy="20.0" r="4.0" fill="black" />
<circle cx="308.0" cy="32.0" r="0.4" fill="black" /><text x="290" y="48" font-size="10">o</text>
<circle cx="332.0" cy="8.0" r="0.4" fill="black" />
<circle cx="332.0" cy="20.0" r="0.4" fill="black" />
<circle cx="332.0" cy="32.0" r="0.4" fill="black" />
<circle cx="348.0" cy="8.0" r="0.4" fill="black" />
<circle cx="348.0" cy="20.0" r="0.4" fill="black" />
<circle cx="348.0" cy="32.0" r="0.4" fill="black" /><text x="330" y="48" font-size="10">ESP</text>
<circle cx="372.0" cy="8.0" r="0.4" fill="black" />
<circle cx="372.0" cy="20.0" r="0.4" fill="black" />
<circle cx="372.0" cy="32.0" r="0.4" fill="black" />
<circle cx="388.0" cy="8.0" r="4.0" fill="black" />
<circle cx="388.0" cy="20.0" r="0.4" fill="black" />
<circle cx="388.0" cy="32.0" r="4.0" fill="black" /><text x="370" y="48" font-size="10">MAY</text>
<circle cx="412.0" cy="8.0" r="4.0" fill="black" />
<circle cx="412.0" cy="20.0" r="0.4" fill="black" />
<circle cx="412.0" cy="32.0" r="0.4" fill="black" />
<circle cx="428.0" cy="8.0" r="4.0" fill="black" />
<circle cx="428.0" cy="20.0" r="0.4" fill="black" />
<circle cx="428.0" cy="32.0" r="0.4" fill="black" /><text x="410" y="48" font-size="10">C</text>
<circle cx="452.0" cy="8.0" r="4.0" fill="black" />
<circle cx="452.0" cy="20.0" r="0.4" fill="black" />
<circle cx="452.0" cy="32.0" r="0.4" fill="black" />
<circle cx="468.0" cy="8.0" r="0.4" fill="black" />
<circle cx="468.0" cy="20.0" r="0.4" fill="black" />
<circle cx="468.0" cy="32.0" r="0.4" fill="black" /><text x="450" y="48" font-size="10">a</text>
<circle cx="492.0" cy="8.0" r="4.0" fill="black" />
<circle cx="492.0" cy="20.0" r="4.0" fill="black" />
<circle cx="492.0" cy="32.0" r="0.4" fill="black" />
<circle cx="508.0" cy="8.0" r="0.4" fill="black" />
<circle cx="508.0" cy="20.0" r="0.4" fill="black" />
<circle cx="508.0" cy="32.0" r="0.4" fill="black" /><text x="490" y="48" font-size="10">b</text>
<circle cx="532.0" cy="8.0" r="4.0" fill="black" />
<circle cx="532.0" cy="20.0" r="4.0" fill="black" />
<circle cx="532.0" cy="32.0" r="4.0" fill="black" />
<circle cx="548.0" cy="8.0" r="0.4" fill="black" />
<circle cx="548.0" cy="20.0" r="4.0" fill="black" />
<circle cx="548.0" cy="32.0" r="0.4" fill="black" /><text x="530" y="48" font-size="10">r</text>
<circle cx="572.0" cy="8.0" r="4.0" fill="black" />
<circle cx="572.0" cy="20.0" r="0.4" fill="black" />
<circle cx="572.0" cy="32.0" r="0.4" fill="black" />
<circle cx="588.0" cy="8.0" r="0.4" fill="black" />
<circle cx="588.0" cy="20.0" r="0.4" fill="black" />
<circle cx="588.0" cy="32.0" r="0.4" fill="black" /><text x="570" y="48" font-size="10">a</text>
<circle cx="612.0" cy="8.0" r="4.0" fill="black" />
<circle cx="612.0" cy="20.0" r="4.0" fill="black" />
<circle cx="612.0" cy="32.0" r="4.0" fill="black" />
<circle cx="628.0" cy="8.0" r="0.4" fill="black" />
<circle cx="628.0" cy="20.0" r="0.4" fill="black" />
<circle cx="628.0" cy="32.0" r="0.4" fill="black" /><text x="610" y="48" font-size="10">l</text>
<circle cx="652.0" cy="8.0" r="0.4" fill="black" />
<circle cx="652.0" cy="20.0" r="0.4" fill="black" />
<circle cx="652.0" cy="32.0" r="0.4" fill="black" />
<circle cx="668.0" cy="8.0" r="0.4" fill="black" />
<circle cx="668.0" cy="20.0" r="0.4" fill="black" />
<circle cx="668.0" cy="32.0" r="0.4" fill="black" /><text x="650" y="48" font-size="10">ESP</text>
<circle cx="692.0" cy="8.0" r="4.0" fill="black" />
<circle cx="692.0" cy="20.0" r="0.4" fill="black" />
<circle cx="692.0" cy="32.0" r="0.4" fill="black" />
<circle cx="708.0" cy="8.0" r="0.4" fill="black" />
<circle cx="708.0" cy="20.0" r="4.0" fill="black" />
<circle cx="708.0" cy="32.0" r="0.4" fill="black" /><text x="690" y="48" font-size="10">e</text>
<circle cx="732.0" cy="8.0" r="4.0" fill="black" />
<circle cx="732.0" cy="20.0" r="0.4" fill="black" />
<circle cx="732.0" cy="32.0" r="4.0" fill="black" />
<circle cx="748.0" cy="8.0" r="4.0" fill="black" />
<circle cx="748.0" cy="20.0" r="4.0" fill="black" />
<circle cx="748.0" cy="32.0" r="0.4" fill="black" /><text x="730" y="48" font-size="10">n</text>
<circle cx="772.0" cy="8.0" r="0.4" fill="black" />
<circle cx="772.0" cy="20.0" r="0.4" fill="black" />
<circle cx="772.0" cy="32.0" r="0.4" fill="black" />
<circle cx="788.0" cy="8.0" r="0.4" fill="black" />
<circle cx="788.0" cy="20.0" r="0.4" fill="black" />
<circle cx="788.0" cy="32.0" r="0.4" fill="black" /><text x="770" y="48" font-size="10">ESP</text>
<circle cx="812.0" cy="8.0" r="4.0" fill="black" />
<circle cx="812.0" cy="20.0" r="0.4" fill="black" />
<circle cx="812.0" cy="32.0" r="0.4" fill="black" />
<circle cx="828.0" cy="8.0" r="0.4" fill="black" />
<circle cx="828.0" cy="20.0" r="4.0" fill="black" />
<circle cx="828.0" cy="32.0" r="0.4" fill="black" /><text x="810" y="48" font-size="10">e</text>
<circle cx="852.0" cy="8.0" r="4.0" fill="black" />
<circle cx="852.0" cy="20.0" r="4.0" fill="black" />
<circle cx="852.0" cy="32.0" r="4.0" fill="black" />
<circle cx="868.0" cy="8.0" r="0.4" fill="black" />
<circle cx="868.0" cy="20.0" r="0.4" fill="black" />
<circle cx="868.0" cy="32.0" r="0.4" fill="black" /><text x="850" y="48" font-size="10">l</text>
<circle cx="892.0" cy="8.0" r="0.4" fill="black" />
<circle cx="892.0" cy="20.0" r="0.4" fill="black" />
<circle cx="892.0" cy="32.0" r="0.4" fill="black" />
<circle cx="908.0" cy="8.0" r="0.4" fill="black" />
<circle cx="908.0" cy="20.0" r="0.4" fill="black" />
<circle cx="908.0" cy="32.0" r="0.4" fill="black" /><text x="890" y="48" font-size="10">ESP</text>
<circle cx="932.0" cy="8.0" r="0.4" fill="black" />
<circle cx="932.0" cy="20.0" r="0.4" fill="black" />
<circle cx="932.0" cy="32.0" r="4.0" fill="black" />
<circle cx="948.0" cy="8.0" r="4.0" fill="black" />
<circle cx="948.0" cy="20.0" r="4.0" fill="black" />
<circle cx="948.0" cy="32.0" r="4.0" fill="black" /><text x="930" y="48" font-size="10">NUM</text>
<circle cx="972.0" cy="8.0" r="4.0" fill="black" />
<circle cx="972.0" cy="20.0" r="0.4" fill="black" />
<circle cx="972.0" cy="32.0" r="0.4" fill="black" />
<circle cx="988.0" cy="8.0" r="0.4" fill="black" />
<circle cx="988.0" cy="20.0" r="0.4" fill="black" />
<circle cx="988.0" cy="32.0" r="0.4" fill="black" /><text x="970" y="48" font-size="10">1</text>
<circle cx="1012.0" cy="8.0" r="4.0" fill="black" />
<circle cx="1012.0" cy="20.0" r="4.0" fill="black" />
<circle cx="1012.0" cy="32.0" r="0.4" fill="black" />
<circle cx="1028.0" cy="8.0" r="0.4" fill="black" />
<circle cx="1028.0" cy="20.0" r="4.0" fill="black" />
<circle cx="1028.0" cy="32.0" r="0.4" fill="black" /><text x="1010" y="48" font-size="10">8</text>
<circle cx="1052.0" cy="8.0" r="0.4" fill="black" />
<circle cx="1052.0" cy="20.0" r="4.0" fill="black" />
<circle cx="1052.0" cy="32.0" r="0.4" fill="black" />
<circle cx="1068.0" cy="8.0" r="4.0" fill="black" />
<circle cx="1068.0" cy="20.0" r="4.0" fill="black" />
<circle cx="1068.0" cy="32.0" r="0.4" fill="black" /><text x="1050" y="48" font-size="10">0</text>
<circle cx="1092.0" cy="8.0" r="0.4" fill="black" />
<circle cx="1092.0" cy="20.0" r="4.0" fill="black" />
<circle cx="1092.0" cy="32.0" r="0.4" fill="black" />
<circle cx="1108.0" cy="8.0" r="4.0" fill="black" />
<circle cx="1108.0" cy="20.0" r="4.0" fill="black" />
<circle cx="1108.0" cy="32.0" r="0.4" fill="black" /><text x="1090" y="48" font-size="10">0</text>
<circle cx="1132.0" cy="8.0" r="0.4" fill="black" />
<circle cx="1132.0" cy="20.0" r="0.4" fill="black" />
<circle cx="1132.0" cy="32.0" r="4.0" fill="black" />
<circle cx="1148.0" cy="8.0" r="0.4" fill="black" />
<circle cx="1148.0" cy="20.0" r="0.4" fill="black" />
<circle cx="1148.0" cy="32.0" r="0.4" fill="black" /><text x="1130" y="48" font-size="10">.</text>
<circle cx="1172.0" cy="8.0" r="0.4" fill="black" />
<circle cx="1172.0" cy="20.0" r="0.4" fill="black" />
<circle cx="1172.0" cy="32.0" r="0.4" fill="black" />
<circle cx="1188.0" cy="8.0" r="0.4" fill="black" />
<circle cx="1188.0" cy="20.0" r="0.4" fill="black" />
<circle cx="1188.0" cy="32.0" r="0.4" fill="black" /><text x="1170" y="48" font-size="10">ESP</text>
<circle cx="1212.0" cy="8.0" r="0.4" fill="black" />
<circle cx="1212.0" cy="20.0" r="0.4" fill="black" />
<circle cx="1212.0" cy="32.0" r="0.4" fill="black" />
<circle cx="1228.0" cy="8.0" r="4.0" fill="black" />
<circle cx="1228.0" cy="20.0" r="0.4" fill="black" />
<circle cx="1228.0" cy="32.0" r="4.0" fill="black" /><text x="1210" y="48" font-size="10">MAY</text>
<circle cx="1252.0" cy="8.0" r="4.0" fill="black" />
<circle cx="1252.0" cy="20.0" r="0.4" fill="black" />
<circle cx="1252.0" cy="32.0" r="0.4" fill="black" />
<circle cx="1268.0" cy="8.0" r="0.4" fill="black" />
<circle cx="1268.0" cy="20.0" r="4.0" fill="black" />
<circle cx="1268.0" cy="32.0" r="0.4" fill="black" /><text x="1250" y="48" font-size="10">E</text>
<circle cx="1292.0" cy="8.0" r="0.4" fill="black" />
<circle cx="1292.0" cy="20.0" r="4.0" fill="black" />
<circle cx="1292.0" cy="32.0" r="4.0" fill="black" />
<circle cx="1308.0" cy="8.0" r="4.0" fill="black" />
<circle cx="1308.0" cy="20.0" r="0.4" fill="black" />
<circle cx="1308.0" cy="32.0" r="0.4" fill="black" /><text x="1290" y="48" font-size="10">s</text>
<circle cx="1332.0" cy="8.0" r="4.0" fill="black" />
<circle cx="1332.0" cy="20.0" r="0.4" fill="black" />
<circle cx="1332.0" cy="32.0" r="0.4" fill="black" />
<circle cx="1348.0" cy="8.0" r="0.4" fill="black" />
<circle cx="1348.0" cy="20.0" r="0.4" fill="black" />
<circle cx="1348.0" cy="32.0" r="0.4" fill="black" /><text x="1330" y="48" font-size="10">a</text>
<circle cx="1372.0" cy="8.0" r="0.4" fill="black" />
<circle cx="1372.0" cy="20.0" r="0.4" fill="black" />
<circle cx="1372.0" cy="32.0" r="0.4" fill="black" />
<circle cx="1388.0" cy="8.0" r="0.4" fill="black" />
<circle cx="1388.0" cy="20.0" r="0.4" fill="black" />
<circle cx="1388.0" cy="32.0" r="0.4" fill="black" /><text x="1370" y="48" font-size="10">ESP</text>
<circle cx="1412.0" cy="8.0" r="4.0" fill="black" />
<circle cx="1412.0" cy="20.0" r="0.4" fill="black" />
<circle cx="1412.0" cy="32.0" r="4.0" fill="black" />
<circle cx="1428.0" cy="8.0" r="0.4" fill="black" />
<circle cx="1428.0" cy="20.0" r="4.0" fill="black" />
<circle cx="1428.0" cy="32.0" r="0.4" fill="black" /><text x="1410" y="48" font-size="10">o</text>
<circle cx="1452.0" cy="8.0" r="4.0" fill="black" />
<circle cx="1452.0" cy="20.0" r="0.4" fill="black" />
<circle cx="1452.0" cy="32.0" r="4.0" fill="black" />
<circle cx="1468.0" cy="8.0" r="4.0" fill="black" />
<circle cx="1468.0" cy="20.0" r="4.0" fill="black" />
<circle cx="1468.0" cy="32.0" r="0.4" fill="black" /><text x="1450" y="48" font-size="10">n</text>
<circle cx="1492.0" cy="8.0" r="4.0" fill="black" />
<circle cx="1492.0" cy="20.0" r="0.4" fill="black" />
<circle cx="1492.0" cy="32.0" r="0.4" fill="black" />
<circle cx="1508.0" cy="8.0" r="4.0" fill="black" />
<circle cx="1508.0" cy="20.0" r="4.0" fill="black" />
<circle cx="1508.0" cy="32.0" r="0.4" fill="black" /><text x="1490" y="48" font-size="10">d</text>
<circle cx="1532.0" cy="8.0" r="4.0" fill="black" />
<circle cx="1532.0" cy="20.0" r="0.4" fill="black" />
<circle cx="1532.0" cy="32.0" r="0.4" fill="black" />
<circle cx="1548.0" cy="8.0" r="0.4" fill="black" />
<circle cx="1548.0" cy="20.0" r="0.4" fill="black" />
<circle cx="1548.0" cy="32.0" r="0.4" fill="black" /><text x="1530" y="48" font-size="10">a</text>
<circle cx="1572.0" cy="8.0" r="0.4" fill="black" />
<circle cx="1572.0" cy="20.0" r="4.0" fill="black" />
<circle cx="1572.0" cy="32.0" r="4.0" fill="black" />
<circle cx="1588.0" cy="8.0" r="0.4" fill="black" />
<circle cx="1588.0" cy="20.0" r="4.0" fill="black" />
<circle cx="1588.0" cy="32.0" r="0.4" fill="black" /><text x="1570" y="48" font-size="10">!</text>
<circle cx="12.0" cy="68.0" r="0.4" fill="black" />
<circle cx="12.0" cy="80.0" r="0.4" fill="black" />
<circle cx="12.0" cy="92.0" r="0.4" fill="black" />
<circle cx="28.0" cy="68.0" r="0.4" fill="black" />
<circle cx="28.0" cy="80.0" r="0.4" fill="black" />
<circle cx="28.0" cy="92.0" r="0.4" fill="black" /><text x="10" y="108" font-size="10">ESP</text>
<circle cx="52.0" cy="68.0" r="0.4" fill="black" />
<circle cx="52.0" cy="80.0" r="0.4" fill="black" />
<circle cx="52.0" cy="92.0" r="0.4" fill="black" />
<circle cx="68.0" cy="68.0" r="4.0" fill="black" />
<circle cx="68.0" cy="80.0" r="0.4" fill="black" />
<circle cx="68.0" cy="92.0" r="4.0" fill="black" /><text x="50" y="108" font-size="10">MAY</text>
<circle cx="92.0" cy="68.0" r="4.0" fill="black" />
<circle cx="92.0" cy="80.0" r="0.4" fill="black" />
<circle cx="92.0" cy="92.0" r="0.4" fill="black" />
<circle cx="108.0" cy="68.0" r="0.4" fill="black" />
<circle cx="108.0" cy="80.0" r="4.0" fill="black" />
<circle cx="108.0" cy="92.0" r="0.4" fill="black" /><text x="90" y="108" font-size="10">E</text>
<circle cx="132.0" cy="68.0" r="0.4" fill="black" />
<circle cx="132.0" cy="80.0" r="4.0" fill="black" />
<circle cx="132.0" cy="92.0" r="4.0" fill="black" />
<circle cx="148.0" cy="68.0" r="4.0" fill="black" />
<circle cx="148.0" cy="80.0" r="0.4" fill="black" />
<circle cx="148.0" cy="92.0" r="0.4" fill="black" /><text x="130" y="108" font-size="10">s</text>
<circle cx="172.0" cy="68.0" r="0.4" fill="black" />
<circle cx="172.0" cy="80.0" r="4.0" fill="black" />
<circle cx="172.0" cy="92.0" r="4.0" fill="black" />
<circle cx="188.0" cy="68.0" r="4.0" fill="black" />
<circle cx="188.0" cy="80.0" r="4.0" fill="black" />
<circle cx="188.0" cy="92.0" r="0.4" fill="black" /><text x="170" y="108" font-size="10">t</text>
<circle cx="212.0" cy="68.0" r="4.0" fill="black" />
<circle cx="212.0" cy="80.0" r="0.4" fill="black" />
<circle cx="212.0" cy="92.0" r="4.0" fill="black" />
<circle cx="228.0" cy="68.0" r="0.4" fill="black" />
<circle cx="228.0" cy="80.0" r="4.0" fill="black" />
<circle cx="228.0" cy="92.0" r="0.4" fill="black" /><text x="210" y="108" font-size="10">o</text>
<circle cx="252.0" cy="68.0" r="0.4" fill="black" />
<circle cx="252.0" cy="80.0" r="0.4" fill="black" />
<circle cx="252.0" cy="92.0" r="0.4" fill="black" />
<circle cx="268.0" cy="68.0" r="0.4" fill="black" />
<circle cx="268.0" cy="80.0" r="0.4" fill="black" />
<circle cx="268.0" cy="92.0" r="0.4" fill="black" /><text x="250" y="108" font-size="10">ESP</text>
<circle cx="292.0" cy="68.0" r="4.0" fill="black" />
<circle cx="292.0" cy="80.0" r="0.4" fill="black" />
<circle cx="292.0" cy="92.0" r="4.0" fill="black" />
<circle cx="308.0" cy="68.0" r="4.0" fill="black" />
<circle cx="308.0" cy="80.0" r="4.0" fill="black" />
<circle cx="308.0" cy="92.0" r="0.4" fill="black" /><text x="290" y="108" font-size="10">n</text>
<circle cx="332.0" cy="68.0" r="4.0" fill="black" />
<circle cx="332.0" cy="80.0" r="0.4" fill="black" />
<circle cx="332.0" cy="92.0" r="4.0" fill="black" />
<circle cx="348.0" cy="68.0" r="0.4" fill="black" />
<circle cx="348.0" cy="80.0" r="4.0" fill="black" />
<circle cx="348.0" cy="92.0" r="0.4" fill="black" /><text x="330" y="108" font-size="10">o</text>
<circle cx="372.0" cy="68.0" r="0.4" fill="black" />
<circle cx="372.0" cy="80.0" r="0.4" fill="black" />
<circle cx="372.0" cy="92.0" r="0.4" fill="black" />
<circle cx="388.0" cy="68.0" r="0.4" fill="black" />
<circle cx="388.0" cy="80.0" r="0.4" fill="black" />
<circle cx="388.0" cy="92.0" r="0.4" fill="black" /><text x="370" y="108" font-size="10">ESP</text>
<circle cx="412.0" cy="68.0" r="4.0" fill="black" />
<circle cx="412.0" cy="80.0" r="4.0" fill="black" />
<circle cx="412.0" cy="92.0" r="4.0" fill="black" />
<circle cx="428.0" cy="68.0" r="0.4" fill="black" />
<circle cx="428.0" cy="80.0" r="0.4" fill="black" />
<circle cx="428.0" cy="92.0" r="0.4" fill="black" /><text x="410" y="108" font-size="10">l</text>
<circle cx="452.0" cy="68.0" r="4.0" fill="black" />
<circle cx="452.0" cy="80.0" r="0.4" fill="black" />
<circle cx="452.0" cy="92.0" r="4.0" fill="black" />
<circle cx="468.0" cy="68.0" r="0.4" fill="black" />
<circle cx="468.0" cy="80.0" r="4.0" fill="black" />
<circle cx="468.0" cy="92.0" r="0.4" fill="black" /><text x="450" y="108" font-size="10">o</text>
<circle cx="492.0" cy="68.0" r="0.4" fill="black" />
<circle cx="492.0" cy="80.0" r="0.4" fill="black" />
<circle cx="492.0" cy="92.0" r="0.4" fill="black" />
<circle cx="508.0" cy="68.0" r="0.4" fill="black" />
<circle cx="508.0" cy="80.0" r="0.4" fill="black" />
<circle cx="508.0" cy="92.0" r="0.4" fill="black" /><text x="490" y="108" font-size="10">ESP</text>
<circle cx="532.0" cy="68.0" r="4.0" fill="black" />
<circle cx="532.0" cy="80.0" r="4.0" fill="black" />
<circle cx="532.0" cy="92.0" r="4.0" fill="black" />
<circle cx="548.0" cy="68.0" r="0.4" fill="black" />
<circle cx="548.0" cy="80.0" r="0.4" fill="black" />
<circle cx="548.0" cy="92.0" r="4.0" fill="black" /><text x="530" y="108" font-size="10">v</text>
<circle cx="572.0" cy="68.0" r="4.0" fill="black" />
<circle cx="572.0" cy="80.0" r="0.4" fill="black" />
<circle cx="572.0" cy="92.0" r="0.4" fill="black" />
<circle cx="588.0" cy="68.0" r="0.4" fill="black" />
<circle cx="588.0" cy="80.0" r="0.4" fill="black" />
<circle cx="588.0" cy="92.0" r="0.4" fill="black" /><text x="570" y="108" font-size="10">a</text>
<circle cx="612.0" cy="68.0" r="4.0" fill="black" />
<circle cx="612.0" cy="80.0" r="0.4" fill="black" />
<circle cx="612.0" cy="92.0" r="4.0" fill="black" />
<circle cx="628.0" cy="68.0" r="4.0" fill="black" />
<circle cx="628.0" cy="80.0" r="0.4" fill="black" />
<circle cx="628.0" cy="92.0" r="0.4" fill="black" /><text x="610" y="108" font-size="10">m</text>
<circle cx="652.0" cy="68.0" r="4.0" fill="black" />
<circle cx="652.0" cy="80.0" r="0.4" fill="black" />
<circle cx="652.0" cy="92.0" r="4.0" fill="black" />
<circle cx="668.0" cy="68.0" r="0.4" fill="black" />
<circle cx="668.0" cy="80.0" r="4.0" fill="black" />
<circle cx="668.0" cy="92.0" r="0.4" fill="black" /><text x="650" y="108" font-size="10">o</text>
<circle cx="692.0" cy="68.0" r="0.4" fill="black" />
<circle cx="692.0" cy="80.0" r="4.0" fill="black" />
<circle cx="692.0" cy="92.0" r="4.0" fill="black" />
<circle cx="708.0" cy="68.0" r="4.0" fill="black" />
<circle cx="708.0" cy="80.0" r="0.4" fill="black" />
<circle cx="708.0" cy="92.0" r="0.4" fill="black" /><text x="690" y="108" font-size="10">s</text>
<circle cx="732.0" cy="68.0" r="0.4" fill="black" />
<circle cx="732.0" cy="80.0" r="0.4" fill="black" />
<circle cx="732.0" cy="92.0" r="0.4" fill="black" />
<circle cx="748.0" cy="68.0" r="0.4" fill="black" />
<circle cx="748.0" cy="80.0" r="0.4" fill="black" />
<circle cx="748.0" cy="92.0" r="0.4" fill="black" /><text x="730" y="108" font-size="10">ESP</text>
<circle cx="772.0" cy="68.0" r="4.0" fill="black" />
<circle cx="772.0" cy="80.0" r="0.4" fill="black" />
<circle cx="772.0" cy="92.0" r="0.4" fill="black" />
<circle cx="788.0" cy="68.0" r="0.4" fill="black" />
<circle cx="788.0" cy="80.0" r="0.4" fill="black" />
<circle cx="788.0" cy="92.0" r="0.4" fill="black" /><text x="770" y="108" font-size="10">a</text>
<circle cx="812.0" cy="68.0" r="0.4" fill="black" />
<circle cx="812.0" cy="80.0" r="0.4" fill="black" />
<circle cx="812.0" cy="92.0" r="0.4" fill="black" />
<circle cx="828.0" cy="68.0" r="0.4" fill="black" />
<circle cx="828.0" cy="80.0" r="0.4" fill="black" />
<circle cx="828.0" cy="92.0" r="0.4" fill="black" /><text x="810" y="108" font-size="10">ESP</text>
<circle cx="852.0" cy="68.0" r="4.0" fill="black" />
<circle cx="852.0" cy="80.0" r="0.4" fill="black" />
<circle cx="852.0" cy="92.0" r="0.4" fill="black" />
<circle cx="868.0" cy="68.0" r="0.4" fill="black" />
<circle cx="868.0" cy="80.0" r="4.0" fill="black" />
<circle cx="868.0" cy="92.0" r="0.4" fill="black" /><text x="850" y="108" font-size="10">e</text>
<circle cx="892.0" cy="68.0" r="4.0" fill="black" />
<circle cx="892.0" cy="80.0" r="0.4" fill="black" />
<circle cx="892.0" cy="92.0" r="4.0" fill="black" />
<circle cx="908.0" cy="68.0" r="4.0" fill="black" />
<circle cx="908.0" cy="80.0" r="4.0" fill="black" />
<circle cx="908.0" cy="92.0" r="0.4" fill="black" /><text x="890" y="108" font-size="10">n</text>
<circle cx="932.0" cy="68.0" r="0.4" fill="black" />
<circle cx="932.0" cy="80.0" r="4.0" fill="black" />
<circle cx="932.0" cy="92.0" r="4.0" fill="black" />
<circle cx="948.0" cy="68.0" r="4.0" fill="black" />
<circle cx="948.0" cy="80.0" r="4.0" fill="black" />
<circle cx="948.0" cy="92.0" r="0.4" fill="black" /><text x="930" y="108" font-size="10">t</text>
<circle cx="972.0" cy="68.0" r="4.0" fill="black" />
<circle cx="972.0" cy="80.0" r="0.4" fill="black" />
<circle cx="972.0" cy="92.0" r="0.4" fill="black" />
<circle cx="988.0" cy="68.0" r="0.4" fill="black" />
<circle cx="988.0" cy="80.0" r="4.0" fill="black" />
<circle cx="988.0" cy="92.0" r="0.4" fill="black" /><text x="970" y="108" font-size="10">e</text>
<circle cx="1012.0" cy="68.0" r="4.0" fill="black" />
<circle cx="1012.0" cy="80.0" r="0.4" fill="black" />
<circle cx="1012.0" cy="92.0" r="4.0" fill="black" />
<circle cx="1028.0" cy="68.0" r="4.0" fill="black" />
<circle cx="1028.0" cy="80.0" r="4.0" fill="black" />
<circle cx="1028.0" cy="92.0" r="0.4" fill="black" /><text x="1010" y="108" font-size="10">n</text>
<circle cx="1052.0" cy="68.0" r="4.0" fill="black" />
<circle cx="1052.0" cy="80.0" r="0.4" fill="black" />
<circle cx="1052.0" cy="92.0" r="0.4" fill="black" />
<circle cx="1068.0" cy="68.0" r="4.0" fill="black" />
<circle cx="1068.0" cy="80.0" r="4.0" fill="black" />
<circle cx="1068.0" cy="92.0" r="0.4" fill="black" /><text x="1050" y="108" font-size="10">d</text>
<circle cx="1092.0" cy="68.0" r="4.0" fill="black" />
<circle cx="1092.0" cy="80.0" r="0.4" fill="black" />
<circle cx="1092.0" cy="92.0" r="0.4" fill="black" />
<circle cx="1108.0" cy="68.0" r="0.4" fill="black" />
<circle cx="1108.0" cy="80.0" r="4.0" fill="black" />
<circle cx="1108.0" cy="92.0" r="0.4" fill="black" /><text x="1090" y="108" font-size="10">e</text>
<circle cx="1132.0" cy="68.0" r="4.0" fill="black" />
<circle cx="1132.0" cy="80.0" r="4.0" fill="black" />
<circle cx="1132.0" cy="92.0" r="4.0" fill="black" />
<circle cx="1148.0" cy="68.0" r="0.4" fill="black" />
<circle cx="1148.0" cy="80.0" r="4.0" fill="black" />
<circle cx="1148.0" cy="92.0" r="0.4" fill="black" /><text x="1130" y="108" font-size="10">r</text>
<circle cx="1172.0" cy="68.0" r="0.4" fill="black" />
<circle cx="1172.0" cy="80.0" r="4.0" fill="black" />
<circle cx="1172.0" cy="92.0" r="0.4" fill="black" />
<circle cx="1188.0" cy="68.0" r="0.4" fill="black" />
<circle cx="1188.0" cy="80.0" r="4.0" fill="black" />
<circle cx="1188.0" cy="92.0" r="0.4" fill="black" /><text x="1170" y="108" font-size="10">:</text>
<circle cx="1212.0" cy="68.0" r="0.4" fill="black" />
<circle cx="1212.0" cy="80.0" r="0.4" fill="black" />
<circle cx="1212.0" cy="92.0" r="0.4" fill="black" />
<circle cx="1228.0" cy="68.0" r="0.4" fill="black" />
<circle cx="1228.0" cy="80.0" r="0.4" fill="black" />
<circle cx="1228.0" cy="92.0" r="0.4" fill="black" /><text x="1210" y="108" font-size="10">ESP</text>
<circle cx="1252.0" cy="68.0" r="0.4" fill="black" />
<circle cx="1252.0" cy="80.0" r="4.0" fill="black" />
<circle cx="1252.0" cy="92.0" r="4.0" fill="black" />
<circle cx="1268.0" cy="68.0" r="0.4" fill="black" />
<circle cx="1268.0" cy="80.0" r="0.4" fill="black" />
<circle cx="1268.0" cy="92.0" r="4.0" fill="black" /><text x="1250" y="108" font-size="10">"</text>
<circle cx="1292.0" cy="68.0" r="4.0" fill="black" />
<circle cx="1292.0" cy="80.0" r="4.0" fill="black" />
<circle cx="1292.0" cy="92.0" r="4.0" fill="black" />
<circle cx="1308.0" cy="68.0" r="4.0" fill="black" />
<circle cx="1308.0" cy="80.0" r="4.0" fill="black" />
<circle cx="1308.0" cy="92.0" r="4.0" fill="black" /><text x="1290" y="108" font-size="10">???</text>
<circle cx="1332.0" cy="68.0" r="0.4" fill="black" />
<circle cx="1332.0" cy="80.0" r="4.0" fill="black" />
<circle cx="1332.0" cy="92.0" r="4.0" fill="black" />
<circle cx="1348.0" cy="68.0" r="0.4" fill="black" />
<circle cx="1348.0" cy="80.0" r="0.4" fill="black" />
<circle cx="1348.0" cy="92.0" r="4.0" fill="black" /><text x="1330" y="108" font-size="10">"</text>
<circle cx="1372.0" cy="68.0" r="0.4" fill="black" />
<circle cx="1372.0" cy="80.0" r="0.4" fill="black" />
<circle cx="1372.0" cy="92.0" r="4.0" fill="black" />
<circle cx="1388.0" cy="68.0" r="0.4" fill="black" />
<circle cx="1388.0" cy="80.0" r="0.4" fill="black" />
<circle cx="1388.0" cy="92.0" r="0.4" fill="black" /><text x="1370" y="108" font-size="10">.</text>
<circle cx="1412.0" cy="68.0" r="0.4" fill="black" />
<circle cx="1412.0" cy="80.0" r="0.4" fill="black" />
<circle cx="1412.0" cy="92.0" r="0.4" fill="black" />
<circle cx="1428.0" cy="68.0" r="0.4" fill="black" />
<circle cx="1428.0" cy="80.0" r="0.4" fill="black" />
<circle cx="1428.0" cy="92.0" r="0.4" fill="black" /><text x="1410" y="108" font-size="10">ESP</text>
</svg>