<svg width="1600" height="1260" xmlns="http://www.w3.org/2000/svg">
<circle cx="12.0" cy="8.0" r="0.4" fill="black" />
<circle cx="12.0" cy="20.0" r="0.4" fill="black" />
<circle cx="12.0" cy="32.0" r="0.4" fill="black" />
<circle cx="28.0" cy="8.0" r="4.0" fill="black" />
<circle cx="28.0" cy="20.0" r="0.4" fill="black" />
<circle cx="28.0" cy="32.0" r="4.0" fill="black" /><text x="10" y="48" font-size="10">MAY</text>
<circle cx="52.0" cy="8.0" r="4.0" fill="black" />
<circle cx="52.0" cy="20.0" r="4.0" fill="black" />
<circle cx="52.0" cy="32.0" r="4.0" fill="black" />
<circle cx="68.0" cy="8.0" r="4.0" fill="black" />
<circle cx="68.0" cy="20.0" r="0.4" fill="black" />
<circle cx="68.0" cy="32.0" r="0.4" fill="black" /><text x="50" y="48" font-size="10">P</text>
<circle cx="92.0" cy="8.0" r="4.0" fill="black" />
<circle cx="92.0" cy="20.0" r="0.4" fill="black" />
<circle cx="92.0" cy="32.0" r="0.4" fill="black" />
<circle cx="108.0" cy="8.0" r="0.4" fill="black" />
<circle cx="108.0" cy="20.0" r="0.4" fill="black" />
<circle cx="108.0" cy="32.0" r="0.4" fill="black" /><text x="90" y="48" font-size="10">a</text>
<circle cx="132.0" cy="8.0" r="4.0" fill="black" />
<circle cx="132.0" cy="20.0" r="4.0" fill="black" />
<circle cx="132.0" cy="32.0" r="4.0" fill="black" />
<circle cx="148.0" cy="8.0" r="0.4" fill="black" />
<circle cx="148.0" cy="20.0" r="4.0" fill="black" />
<circle cx="148.0" cy="32.0" r="0.4" fill="black" /><text x="130" y="48" font-size="10">r</text>
<circle cx="172.0" cy="8.0" r="4.0" fill="black" />
<circle cx="172.0" cy="20.0" r="0.4" fill="black" />
<circle cx="172.0" cy="32.0" r="0.4" fill="black" />
<circle cx="188.0" cy="8.0" r="0.4" fill="black" />
<circle cx="188.0" cy="20.0" r="0.4" fill="black" />
<circle cx="188.0" cy="32.0" r="0.4" fill="black" /><text x="170" y="48" font-size="10">a</text>
<circle cx="212.0" cy="8.0" r="4.0" fill="black" />
<circle cx="212.0" cy="20.0" r="0.4" fill="black" />
<circle cx="212.0" cy="32.0" r="4.0" fill="black" />
<circle cx="228.0" cy="8.0" r="4.0" fill="black" />
<circle cx="228.0" cy="20.0" r="4.0" fill="black" />
<circle cx="228.0" cy="32.0" r="0.4" fill="black" /><text x="210" y="48" font-size="10">n</text>
<circle cx="252.0" cy="8.0" r="4.0" fill="black" />
<circle cx="252.0" cy="20.0" r="4.0" fill="black" />
<circle cx="252.0" cy="32.0" r="0.4" fill="black" />
<circle cx="268.0" cy="8.0" r="4.0" fill="black" />
<circle cx="268.0" cy="20.0" r="4.0" fill="black" />
<circle cx="268.0" cy="32.0" r="0.4" fill="black" /><text x="250" y="48" font-size="10">g</text>
<circle cx="292.0" cy="8.0" r="4.0" fill="black" />
<circle cx="292.0" cy="20.0" r="0.4" fill="black" />
<circle cx="292.0" cy="32.0" r="0.4" fill="black" />
<circle cx="308.0" cy="8.0" r="0.4" fill="black" />
<circle cx="308.0" cy="20.0" r="0.4" fill="black" />
<circle cx="308.0" cy="32.0" r="0.4" fill="black" /><text x="290" y="48" font-size="10">a</text>
<circle cx="332.0" cy="8.0" r="0.4" fill="black" />
<circle cx="332.0" cy="20.0" r="4.0" fill="black" />
<circle cx="332.0" cy="32.0" r="4.0" fill="black" />
<circle cx="348.0" cy="8.0" r="4.0" fill="black" />
<circle cx="348.0" cy="20.0" r="4.0" fill="black" />
<circle cx="348.0" cy="32.0" r="0.4" fill="black" /><text x="330" y="48" font-size="10">t</text>
<circle cx="372.0" cy="8.0" r="0.4" fill="black" />
<circle cx="372.0" cy="20.0" r="4.0" fill="black" />
<circle cx="372.0" cy="32.0" r="0.4" fill="black" />
<circle cx="388.0" cy="8.0" r="4.0" fill="black" />
<circle cx="388.0" cy="20.0" r="0.4" fill="black" />
<circle cx="388.0" cy="32.0" r="0.4" fill="black" /><text x="370" y="48" font-size="10">i</text>
<circle cx="412.0" cy="8.0" r="4.0" fill="black" />
<circle cx="412.0" cy="20.0" r="4.0" fill="black" />
<circle cx="412.0" cy="32.0" r="4.0" fill="black" />
<circle cx="428.0" cy="8.0" r="0.4" fill="black" />
<circle cx="428.0" cy="20.0" r="4.0" fill="black" />
<circle cx="428.0" cy="32.0" r="0.4" fill="black" /><text x="410" y="48" font-size="10">r</text>
<circle cx="452.0" cy="8.0" r="0.4" fill="black" />
<circle cx="452.0" cy="20.0" r="4.0" fill="black" />
<circle cx="452.0" cy="32.0" r="0.4" fill="black" />
<circle cx="468.0" cy="8.0" r="4.0" fill="black" />
<circle cx="468.0" cy="20.0" r="0.4" fill="black" />
<circle cx="468.0" cy="32.0" r="0.4" fill="black" /><text x="450" y="48" font-size="10">i</text>
<circle cx="492.0" cy="8.0" r="4.0" fill="black" />
<circle cx="492.0" cy="20.0" r="0.4" fill="black" />
<circle cx="492.0" cy="32.0" r="4.0" fill="black" />
<circle cx="508.0" cy="8.0" r="4.0" fill="black" />
<circle cx="508.0" cy="20.0" r="0.4" fill="black" />
<circle cx="508.0" cy="32.0" r="0.4" fill="black" /><text x="490" y="48" font-size="10">m</text>
<circle cx="532.0" cy="8.0" r="0.4" fill="black" />
<circle cx="532.0" cy="20.0" r="4.0" fill="black" />
<circle cx="532.0" cy="32.0" r="0.4" fill="black" />
<circle cx="548.0" cy="8.0" r="4.0" fill="black" />
<circle cx="548.0" cy="20.0" r="0.4" fill="black" />
<circle cx="548.0" cy="32.0" r="0.4" fill="black" /><text x="530" y="48" font-size="10">i</text>
<circle cx="572.0" cy="8.0" r="4.0" fill="black" />
<circle cx="572.0" cy="20.0" r="0.4" fill="black" />
<circle cx="572.0" cy="32.0" r="0.4" fill="black" />
<circle cx="588.0" cy="8.0" r="4.0" fill="black" />
<circle cx="588.0" cy="20.0" r="0.4" fill="black" />
<circle cx="588.0" cy="32.0" r="0.4" fill="black" /><text x="570" y="48" font-size="10">c</text>
<circle cx="612.0" cy="8.0" r="4.0" fill="black" />
<circle cx="612.0" cy="20.0" r="0.4" fill="black" />
<circle cx="612.0" cy="32.0" r="4.0" fill="black" />
<circle cx="628.0" cy="8.0" r="0.4" fill="black" />
<circle cx="628.0" cy="20.0" r="0.4" fill="black" />
<circle cx="628.0" cy="32.0" r="4.0" fill="black" /><text x="610" y="48" font-size="10">u</text>
<circle cx="652.0" cy="8.0" r="4.0" fill="black" />
<circle cx="652.0" cy="20.0" r="0.4" fill="black" />
<circle cx="652.0" cy="32.0" r="0.4" fill="black" />
<circle cx="668.0" cy="8.0" r="0.4" fill="black" />
<circle cx="668.0" cy="20.0" r="0.4" fill="black" />
<circle cx="668.0" cy="32.0" r="0.4" fill="black" /><text x="650" y="48" font-size="10">a</text>
<circle cx="692.0" cy="8.0" r="4.0" fill="black" />
<circle cx="692.0" cy="20.0" r="4.0" fill="black" />
<circle cx="692.0" cy="32.0" r="4.0" fill="black" />
<circle cx="708.0" cy="8.0" r="0.4" fill="black" />
<circle cx="708.0" cy="20.0" r="4.0" fill="black" />
<circle cx="708.0" cy="32.0" r="0.4" fill="black" /><text x="690" y="48" font-size="10">r</text>
<circle cx="732.0" cy="8.0" r="4.0" fill="black" />
<circle cx="732.0" cy="20.0" r="0.4" fill="black" />
<circle cx="732.0" cy="32.0" r="4.0" fill="black" />
<circle cx="748.0" cy="8.0" r="0.4" fill="black" />
<circle cx="748.0" cy="20.0" r="4.0" fill="black" />
<circle cx="748.0" cy="32.0" r="0.4" fill="black" /><text x="730" y="48" font-size="10">o</text>
<circle cx="772.0" cy="8.0" r="0.4" fill="black" />
<circle cx="772.0" cy="20.0" r="0.4" fill="black" />
<circle cx="772.0" cy="32.0" r="4.0" fill="black" />
<circle cx="788.0" cy="8.0" r="0.4" fill="black" />
<circle cx="788.0" cy="20.0" r="0.4" fill="black" />
<circle cx="788.0" cy="32.0" r="0.4" fill="black" /><text x="770" y="48" font-size="10">.</text>
<circle cx="812.0" cy="8.0" r="0.4" fill="black" />
<circle cx="812.0" cy="20.0" r="0.4" fill="black" />
<circle cx="812.0" cy="32.0" r="0.4" fill="black" />
<circle cx="828.0" cy="8.0" r="0.4" fill="black" />
<circle cx="828.0" cy="20.0" r="0.4" fill="black" />
<circle cx="828.0" cy="32.0" r="0.4" fill="black" /><text x="810" y="48" font-size="10">ESP</text>
</svg>