<svg width="1600" height="920" xmlns="http://www.w3.org/2000/svg">
<circle cx="22.0" cy="28.0" r="0.4" fill="black" />
<circle cx="22.0" cy="40.0" r="0.4" fill="black" />
<circle cx="22.0" cy="52.0" r="4.0" fill="black" />
<circle cx="38.0" cy="28.0" r="4.0" fill="black" />
<circle cx="38.0" cy="40.0" r="4.0" fill="black" />
<circle cx="38.0" cy="52.0" r="4.0" fill="black" /><text x="20" y="68" font-size="10">NUM</text>
<circle cx="62.0" cy="28.0" r="4.0" fill="black" />
<circle cx="62.0" cy="40.0" r="0.4" fill="black" />
<circle cx="62.0" cy="52.0" r="0.4" fill="black" />
<circle cx="78.0" cy="28.0" r="0.4" fill="black" />
<circle cx="78.0" cy="40.0" r="0.4" fill="black" />
<circle cx="78.0" cy="52.0" r="0.4" fill="black" /><text x="60" y="68" font-size="10">1</text>
<circle cx="102.0" cy="28.0" r="0.4" fill="black" />
<circle cx="102.0" cy="40.0" r="0.4" fill="black" />
<circle cx="102.0" cy="52.0" r="0.4" fill="black" />
<circle cx="118.0" cy="28.0" r="0.4" fill="black" />
<circle cx="118.0" cy="40.0" r="0.4" fill="black" />
<circle cx="118.0" cy="52.0" r="0.4" fill="black" /><text x="100" y="68" font-size="10"> </text>
<circle cx="142.0" cy="28.0" r="4.0" fill="black" />
<circle cx="142.0" cy="40.0" r="0.4" fill="black" />
<circle cx="142.0" cy="52.0" r="0.4" fill="black" />
<circle cx="158.0" cy="28.0" r="0.4" fill="black" />
<circle cx="158.0" cy="40.0" r="4.0" fill="black" />
<circle cx="158.0" cy="52.0" r="0.4" fill="black" /><text x="140" y="68" font-size="10">e</text>
<circle cx="182.0" cy="28.0" r="0.4" fill="black" />
<circle cx="182.0" cy="40.0" r="4.0" fill="black" />
<circle cx="182.0" cy="52.0" r="4.0" fill="black" />
<circle cx="198.0" cy="28.0" r="4.0" fill="black" />
<circle cx="198.0" cy="40.0" r="0.4" fill="black" />
<circle cx="198.0" cy="52.0" r="0.4" fill="black" /><text x="180" y="68" font-size="10">s</text>
<circle cx="222.0" cy="28.0" r="0.4" fill="black" />
<circle cx="222.0" cy="40.0" r="0.4" fill="black" />
<circle cx="222.0" cy="52.0" r="0.4" fill="black" />
<circle cx="238.0" cy="28.0" r="0.4" fill="black" />
<circle cx="238.0" cy="40.0" r="0.4" fill="black" />
<circle cx="238.0" cy="52.0" r="0.4" fill="black" /><text x="220" y="68" font-size="10"> </text>
<circle cx="262.0" cy="28.0" r="4.0" fill="black" />
<circle cx="262.0" cy="40.0" r="0.4" fill="black" />
<circle cx="262.0" cy="52.0" r="0.4" fill="black" />
<circle cx="278.0" cy="28.0" r="0.4" fill="black" />
<circle cx="278.0" cy="40.0" r="4.0" fill="black" />
<circle cx="278.0" cy="52.0" r="0.4" fill="black" /><text x="260" y="68" font-size="10">e</text>
<circle cx="302.0" cy="28.0" r="4.0" fill="black" />
<circle cx="302.0" cy="40.0" r="4.0" fill="black" />
<circle cx="302.0" cy="52.0" r="4.0" fill="black" />
<circle cx="318.0" cy="28.0" r="0.4" fill="black" />
<circle cx="318.0" cy="40.0" r="0.4" fill="black" />
<circle cx="318.0" cy="52.0" r="0.4" fill="black" /><text x="300" y="68" font-size="10">l</text>
<circle cx="342.0" cy="28.0" r="0.4" fill="black" />
<circle cx="342.0" cy="40.0" r="0.4" fill="black" />
<circle cx="342.0" cy="52.0" r="0.4" fill="black" />
<circle cx="358.0" cy="28.0" r="0.4" fill="black" />
<circle cx="358.0" cy="40.0" r="0.4" fill="black" />
<circle cx="358.0" cy="52.0" r="0.4" fill="black" /><text x="340" y="68" font-size="10"> </text>
<circle cx="382.0" cy="28.0" r="4.0" fill="black" />
<circle cx="382.0" cy="40.0" r="0.4" fill="black" />
<circle cx="382.0" cy="52.0" r="4.0" fill="black" />
<circle cx="398.0" cy="28.0" r="4.0" fill="black" />
<circle cx="398.0" cy="40.0" r="4.0" fill="black" />
<circle cx="398.0" cy="52.0" r="0.4" fill="black" /><text x="380" y="68" font-size="10">n</text>
<circle cx="422.0" cy="28.0" r="0.4" fill="black" />
<circle cx="422.0" cy="40.0" r="4.0" fill="black" />
<circle cx="422.0" cy="52.0" r="4.0" fill="black" />
<circle cx="438.0" cy="28.0" r="4.0" fill="black" />
<circle cx="438.0" cy="40.0" r="4.0" fill="black" />
<circle cx="438.0" cy="52.0" r="4.0" fill="black" /><text x="420" y="68" font-size="10">u</text>
<circle cx="462.0" cy="28.0" r="4.0" fill="black" />
<circle cx="462.0" cy="40.0" r="0.4" fill="black" />
<circle cx="462.0" cy="52.0" r="4.0" fill="black" />
<circle cx="478.0" cy="28.0" r="4.0" fill="black" />
<circle cx="478.0" cy="40.0" r="0.4" fill="black" />
<circle cx="478.0" cy="52.0" r="0.4" fill="black" /><text x="460" y="68" font-size="10">m</text>
<circle cx="502.0" cy="28.0" r="4.0" fill="black" />
<circle cx="502.0" cy="40.0" r="0.4" fill="black" />
<circle cx="502.0" cy="52.0" r="0.4" fill="black" />
<circle cx="518.0" cy="28.0" r="0.4" fill="black" />
<circle cx="518.0" cy="40.0" r="4.0" fill="black" />
<circle cx="518.0" cy="52.0" r="0.4" fill="black" /><text x="500" y="68" font-size="10">e</text>
<circle cx="542.0" cy="28.0" r="4.0" fill="black" />
<circle cx="542.0" cy="40.0" r="4.0" fill="black" />
<circle cx="542.0" cy="52.0" r="4.0" fill="black" />
<circle cx="558.0" cy="28.0" r="0.4" fill="black" />
<circle cx="558.0" cy="40.0" r="4.0" fill="black" />
<circle cx="558.0" cy="52.0" r="0.4" fill="black" /><text x="540" y="68" font-size="10">r</text>
<circle cx="582.0" cy="28.0" r="4.0" fill="black" />
<circle cx="582.0" cy="40.0" r="0.4" fill="black" />
<circle cx="582.0" cy="52.0" r="4.0" fill="black" />
<circle cx="598.0" cy="28.0" r="0.4" fill="black" />
<circle cx="598.0" cy="40.0" r="4.0" fill="black" />
<circle cx="598.0" cy="52.0" r="0.4" fill="black" /><text x="580" y="68" font-size="10">o</text>
<circle cx="622.0" cy="28.0" r="0.4" fill="black" />
<circle cx="622.0" cy="40.0" r="0.4" fill="black" />
<circle cx="622.0" cy="52.0" r="0.4" fill="black" />
<circle cx="638.0" cy="28.0" r="0.4" fill="black" />
<circle cx="638.0" cy="40.0" r="0.4" fill="black" />
<circle cx="638.0" cy="52.0" r="0.4" fill="black" /><text x="620" y="68" font-size="10"> </text>
<circle cx="662.0" cy="28.0" r="0.4" fill="black" />
<circle cx="662.0" cy="40.0" r="0.4" fill="black" />
<circle cx="662.0" cy="52.0" r="0.4" fill="black" />
<circle cx="678.0" cy="28.0" r="4.0" fill="black" />
<circle cx="678.0" cy="40.0" r="0.4" fill="black" />
<circle cx="678.0" cy="52.0" r="4.0" fill="black" /><text x="660" y="68" font-size="10">MAY</text>
<circle cx="702.0" cy="28.0" r="4.0" fill="black" />
<circle cx="702.0" cy="40.0" r="0.4" fill="black" />
<circle cx="702.0" cy="52.0" r="4.0" fill="black" />
<circle cx="718.0" cy="28.0" r="0.4" fill="black" />
<circle cx="718.0" cy="40.0" r="0.4" fill="black" />
<circle cx="718.0" cy="52.0" r="4.0" fill="black" /><text x="700" y="68" font-size="10">U</text>
<circle cx="742.0" cy="28.0" r="4.0" fill="black" />
<circle cx="742.0" cy="40.0" r="0.4" fill="black" />
<circle cx="742.0" cy="52.0" r="4.0" fill="black" />
<circle cx="758.0" cy="28.0" r="4.0" fill="black" />
<circle cx="758.0" cy="40.0" r="4.0" fill="black" />
<circle cx="758.0" cy="52.0" r="0.4" fill="black" /><text x="740" y="68" font-size="10">n</text>
<circle cx="782.0" cy="28.0" r="4.0" fill="black" />
<circle cx="782.0" cy="40.0" r="0.4" fill="black" />
<circle cx="782.0" cy="52.0" r="4.0" fill="black" />
<circle cx="798.0" cy="28.0" r="0.4" fill="black" />
<circle cx="798.0" cy="40.0" r="4.0" fill="black" />
<circle cx="798.0" cy="52.0" r="0.4" fill="black" /><text x="780" y="68" font-size="10">o</text>
<circle cx="822.0" cy="28.0" r="0.4" fill="black" />
<circle cx="822.0" cy="40.0" r="0.4" fill="black" />
<circle cx="822.0" cy="52.0" r="4.0" fill="black" />
<circle cx="838.0" cy="28.0" r="0.4" fill="black" />
<circle cx="838.0" cy="40.0" r="0.4" fill="black" />
<circle cx="838.0" cy="52.0" r="0.4" fill="black" /><text x="820" y="68" font-size="10">.</text>
<circle cx="22.0" cy="88.0" r="0.4" fill="black" />
<circle cx="22.0" cy="100.0" r="0.4" fill="black" />
<circle cx="22.0" cy="112.0" r="0.4" fill="black" />
<circle cx="38.0" cy="88.0" r="0.4" fill="black" />
<circle cx="38.0" cy="100.0" r="0.4" fill="black" />
<circle cx="38.0" cy="112.0" r="0.4" fill="black" /><text x="20" y="128" font-size="10"> </text>
<circle cx="62.0" cy="88.0" r="0.4" fill="black" />
<circle cx="62.0" cy="100.0" r="0.4" fill="black" />
<circle cx="62.0" cy="112.0" r="4.0" fill="black" />
<circle cx="78.0" cy="88.0" r="4.0" fill="black" />
<circle cx="78.0" cy="100.0" r="4.0" fill="black" />
<circle cx="78.0" cy="112.0" r="4.0" fill="black" /><text x="60" y="128" font-size="10">NUM</text>
<circle cx="102.0" cy="88.0" r="4.0" fill="black" />
<circle cx="102.0" cy="100.0" r="4.0" fill="black" />
<circle cx="102.0" cy="112.0" r="0.4" fill="black" />
<circle cx="118.0" cy="88.0" r="0.4" fill="black" />
<circle cx="118.0" cy="100.0" r="0.4" fill="black" />
<circle cx="118.0" cy="112.0" r="0.4" fill="black" /><text x="100" y="128" font-size="10">2</text>
<circle cx="22.0" cy="148.0" r="0.4" fill="black" />
<circle cx="22.0" cy="160.0" r="0.4" fill="black" />
<circle cx="22.0" cy="172.0" r="4.0" fill="black" />
<circle cx="38.0" cy="148.0" r="4.0" fill="black" />
<circle cx="38.0" cy="160.0" r="4.0" fill="black" />
<circle cx="38.0" cy="172.0" r="4.0" fill="black" /><text x="20" y="188" font-size="10">NUM</text>
<circle cx="62.0" cy="148.0" r="4.0" fill="black" />
<circle cx="62.0" cy="160.0" r="0.4" fill="black" />
<circle cx="62.0" cy="172.0" r="0.4" fill="black" />
<circle cx="78.0" cy="148.0" r="4.0" fill="black" />
<circle cx="78.0" cy="160.0" r="0.4" fill="black" />
<circle cx="78.0" cy="172.0" r="0.4" fill="black" /><text x="60" y="188" font-size="10">3</text>
<circle cx="22.0" cy="208.0" r="0.4" fill="black" />
<circle cx="22.0" cy="220.0" r="0.4" fill="black" />
<circle cx="22.0" cy="232.0" r="0.4" fill="black" />
<circle cx="38.0" cy="208.0" r="0.4" fill="black" />
<circle cx="38.0" cy="220.0" r="0.4" fill="black" />
<circle cx="38.0" cy="232.0" r="0.4" fill="black" /><text x="20" y="248" font-size="10"> </text>
<circle cx="62.0" cy="208.0" r="0.4" fill="black" />
<circle cx="62.0" cy="220.0" r="0.4" fill="black" />
<circle cx="62.0" cy="232.0" r="0.4" fill="black" />
<circle cx="78.0" cy="208.0" r="0.4" fill="black" />
<circle cx="78.0" cy="220.0" r="0.4" fill="black" />
<circle cx="78.0" cy="232.0" r="0.4" fill="black" /><text x="60" y="248" font-size="10"> </text>
<circle cx="102.0" cy="208.0" r="0.4" fill="black" />
<circle cx="102.0" cy="220.0" r="0.4" fill="black" />
<circle cx="102.0" cy="232.0" r="4.0" fill="black" />
<circle cx="118.0" cy="208.0" r="4.0" fill="black" />
<circle cx="118.0" cy="220.0" r="4.0" fill="black" />
<circle cx="118.0" cy="232.0" r="4.0" fill="black" /><text x="100" y="248" font-size="10">NUM</text>
<circle cx="142.0" cy="208.0" r="4.0" fill="black" />
<circle cx="142.0" cy="220.0" r="0.4" fill="black" />
<circle cx="142.0" cy="232.0" r="0.4" fill="black" />
<circle cx="158.0" cy="208.0" r="4.0" fill="black" />
<circle cx="158.0" cy="220.0" r="4.0" fill="black" />
<circle cx="158.0" cy="232.0" r="0.4" fill="black" /><text x="140" y="248" font-size="10">4</text>
<circle cx="22.0" cy="268.0" r="0.4" fill="black" />
<circle cx="22.0" cy="280.0" r="0.4" fill="black" />
<circle cx="22.0" cy="292.0" r="4.0" fill="black" />
<circle cx="38.0" cy="268.0" r="4.0" fill="black" />
<circle cx="38.0" cy="280.0" r="4.0" fill="black" />
<circle cx="38.0" cy="292.0" r="4.0" fill="black" /><text x="20" y="308" font-size="10">NUM</text>
<circle cx="62.0" cy="268.0" r="4.0" fill="black" />
<circle cx="62.0" cy="280.0" r="0.4" fill="black" />
<circle cx="62.0" cy="292.0" r="0.4" fill="black" />
<circle cx="78.0" cy="268.0" r="0.4" fill="black" />
<circle cx="78.0" cy="280.0" r="4.0" fill="black" />
<circle cx="78.0" cy="292.0" r="0.4" fill="black" /><text x="60" y="308" font-size="10">5</text>
<circle cx="22.0" cy="328.0" r="0.4" fill="black" />
<circle cx="22.0" cy="340.0" r="0.4" fill="black" />
<circle cx="22.0" cy="352.0" r="4.0" fill="black" />
<circle cx="38.0" cy="328.0" r="4.0" fill="black" />
<circle cx="38.0" cy="340.0" r="4.0" fill="black" />
<circle cx="38.0" cy="352.0" r="4.0" fill="black" /><text x="20" y="368" font-size="10">NUM</text>
<circle cx="62.0" cy="328.0" r="4.0" fill="black" />
<circle cx="62.0" cy="340.0" r="4.0" fill="black" />
<circle cx="62.0" cy="352.0" r="0.4" fill="black" />
<circle cx="78.0" cy="328.0" r="4.0" fill="black" />
<circle cx="78.0" cy="340.0" r="0.4" fill="black" />
<circle cx="78.0" cy="352.0" r="0.4" fill="black" /><text x="60" y="368" font-size="10">6</text>
<circle cx="22.0" cy="388.0" r="0.4" fill="black" />
<circle cx="22.0" cy="400.0" r="0.4" fill="black" />
<circle cx="22.0" cy="412.0" r="4.0" fill="black" />
<circle cx="38.0" cy="388.0" r="4.0" fill="black" />
<circle cx="38.0" cy="400.0" r="4.0" fill="black" />
<circle cx="38.0" cy="412.0" r="4.0" fill="black" /><text x="20" y="428" font-size="10">NUM</text>
<circle cx="62.0" cy="388.0" r="4.0" fill="black" />
<circle cx="62.0" cy="400.0" r="4.0" fill="black" />
<circle cx="62.0" cy="412.0" r="0.4" fill="black" />
<circle cx="78.0" cy="388.0" r="4.0" fill="black" />
<circle cx="78.0" cy="400.0" r="4.0" fill="black" />
<circle cx="78.0" cy="412.0" r="0.4" fill="black" /><text x="60" y="428" font-size="10">7</text>
<circle cx="22.0" cy="448.0" r="0.4" fill="black" />
<circle cx="22.0" cy="460.0" r="0.4" fill="black" />
<circle cx="22.0" cy="472.0" r="4.0" fill="black" />
<circle cx="38.0" cy="448.0" r="4.0" fill="black" />
<circle cx="38.0" cy="460.0" r="4.0" fill="black" />
<circle cx="38.0" cy="472.0" r="4.0" fill="black" /><text x="20" y="488" font-size="10">NUM</text>
<circle cx="62.0" cy="448.0" r="4.0" fill="black" />
<circle cx="62.0" cy="460.0" r="4.0" fill="black" />
<circle cx="62.0" cy="472.0" r="0.4" fill="black" />
<circle cx="78.0" cy="448.0" r="0.4" fill="black" />
<circle cx="78.0" cy="460.0" r="4.0" fill="black" />
<circle cx="78.0" cy="472.0" r="0.4" fill="black" /><text x="60" y="488" font-size="10">8</text>
<circle cx="22.0" cy="508.0" r="0.4" fill="black" />
<circle cx="22.0" cy="520.0" r="0.4" fill="black" />
<circle cx="22.0" cy="532.0" r="4.0" fill="black" />
<circle cx="38.0" cy="508.0" r="4.0" fill="black" />
<circle cx="38.0" cy="520.0" r="4.0" fill="black" />
<circle cx="38.0" cy="532.0" r="4.0" fill="black" /><text x="20" y="548" font-size="10">NUM</text>
<circle cx="62.0" cy="508.0" r="0.4" fill="black" />
<circle cx="62.0" cy="520.0" r="4.0" fill="black" />
<circle cx="62.0" cy="532.0" r="0.4" fill="black" />
<circle cx="78.0" cy="508.0" r="4.0" fill="black" />
<circle cx="78.0" cy="520.0" r="0.4" fill="black" />
<circle cx="78.0" cy="532.0" r="0.4" fill="black" /><text x="60" y="548" font-size="10">9</text>
<circle cx="22.0" cy="568.0" r="0.4" fill="black" />
<circle cx="22.0" cy="580.0" r="0.4" fill="black" />
<circle cx="22.0" cy="592.0" r="4.0" fill="black" />
<circle cx="38.0" cy="568.0" r="4.0" fill="black" />
<circle cx="38.0" cy="580.0" r="4.0" fill="black" />
<circle cx="38.0" cy="592.0" r="4.0" fill="black" /><text x="20" y="608" font-size="10">NUM</text>
<circle cx="62.0" cy="568.0" r="4.0" fill="black" />
<circle cx="62.0" cy="580.0" r="0.4" fill="black" />
<circle cx="62.0" cy="592.0" r="0.4" fill="black" />
<circle cx="78.0" cy="568.0" r="0.4" fill="black" />
<circle cx="78.0" cy="580.0" r="0.4" fill="black" />
<circle cx="78.0" cy="592.0" r="0.4" fill="black" /><text x="60" y="608" font-size="10">1</text>
<circle cx="102.0" cy="568.0" r="0.4" fill="black" />
<circle cx="102.0" cy="580.0" r="4.0" fill="black" />
<circle cx="102.0" cy="592.0" r="0.4" fill="black" />
<circle cx="118.0" cy="568.0" r="4.0" fill="black" />
<circle cx="118.0" cy="580.0" r="4.0" fill="black" />
<circle cx="118.0" cy="592.0" r="0.4" fill="black" /><text x="100" y="608" font-size="10">0</text>
<circle cx="22.0" cy="628.0" r="0.4" fill="black" />
<circle cx="22.0" cy="640.0" r="0.4" fill="black" />
<circle cx="22.0" cy="652.0" r="4.0" fill="black" />
<circle cx="38.0" cy="628.0" r="4.0" fill="black" />
<circle cx="38.0" cy="640.0" r="4.0" fill="black" />
<circle cx="38.0" cy="652.0" r="4.0" fill="black" /><text x="20" y="668" font-size="10">NUM</text>
<circle cx="62.0" cy="628.0" r="4.0" fill="black" />
<circle cx="62.0" cy="640.0" r="0.4" fill="black" />
<circle cx="62.0" cy="652.0" r="0.4" fill="black" />
<circle cx="78.0" cy="628.0" r="0.4" fill="black" />
<circle cx="78.0" cy="640.0" r="0.4" fill="black" />
<circle cx="78.0" cy="652.0" r="0.4" fill="black" /><text x="60" y="668" font-size="10">1</text>
<circle cx="102.0" cy="628.0" r="4.0" fill="black" />
<circle cx="102.0" cy="640.0" r="0.4" fill="black" />
<circle cx="102.0" cy="652.0" r="0.4" fill="black" />
<circle cx="118.0" cy="628.0" r="0.4" fill="black" />
<circle cx="118.0" cy="640.0" r="0.4" fill="black" />
<circle cx="118.0" cy="652.0" r="0.4" fill="black" /><text x="100" y="668" font-size="10">1</text>
<circle cx="22.0" cy="688.0" r="0.4" fill="black" />
<circle cx="22.0" cy="700.0" r="0.4" fill="black" />
<circle cx="22.0" cy="712.0" r="4.0" fill="black" />
<circle cx="38.0" cy="688.0" r="4.0" fill="black" />
<circle cx="38.0" cy="700.0" r="4.0" fill="black" />
<circle cx="38.0" cy="712.0" r="4.0" fill="black" /><text x="20" y="728" font-size="10">NUM</text>
<circle cx="62.0" cy="688.0" r="4.0" fill="black" />
<circle cx="62.0" cy="700.0" r="0.4" fill="black" />
<circle cx="62.0" cy="712.0" r="0.4" fill="black" />
<circle cx="78.0" cy="688.0" r="0.4" fill="black" />
<circle cx="78.0" cy="700.0" r="0.4" fill="black" />
<circle cx="78.0" cy="712.0" r="0.4" fill="black" /><text x="60" y="728" font-size="10">1</text>
<circle cx="102.0" cy="688.0" r="4.0" fill="black" />
<circle cx="102.0" cy="700.0" r="4.0" fill="black" />
<circle cx="102.0" cy="712.0" r="0.4" fill="black" />
<circle cx="118.0" cy="688.0" r="0.4" fill="black" />
<circle cx="118.0" cy="700.0" r="0.4" fill="black" />
<circle cx="118.0" cy="712.0" r="0.4" fill="black" /><text x="100" y="728" font-size="10">2</text>
<circle cx="22.0" cy="748.0" r="0.4" fill="black" />
<circle cx="22.0" cy="760.0" r="0.4" fill="black" />
<circle cx="22.0" cy="772.0" r="4.0" fill="black" />
<circle cx="38.0" cy="748.0" r="4.0" fill="black" />
<circle cx="38.0" cy="760.0" r="4.0" fill="black" />
<circle cx="38.0" cy="772.0" r="4.0" fill="black" /><text x="20" y="788" font-size="10">NUM</text>
<circle cx="62.0" cy="748.0" r="4.0" fill="black" />
<circle cx="62.0" cy="760.0" r="0.4" fill="black" />
<circle cx="62.0" cy="772.0" r="0.4" fill="black" />
<circle cx="78.0" cy="748.0" r="0.4" fill="black" />
<circle cx="78.0" cy="760.0" r="0.4" fill="black" />
<circle cx="78.0" cy="772.0" r="0.4" fill="black" /><text x="60" y="788" font-size="10">1</text>
<circle cx="102.0" cy="748.0" r="4.0" fill="black" />
<circle cx="102.0" cy="760.0" r="0.4" fill="black" />
<circle cx="102.0" cy="772.0" r="0.4" fill="black" />
<circle cx="118.0" cy="748.0" r="4.0" fill="black" />
<circle cx="118.0" cy="760.0" r="0.4" fill="black" />
<circle cx="118.0" cy="772.0" r="0.4" fill="black" /><text x="100" y="788" font-size="10">3</text>
<circle cx="22.0" cy="808.0" r="0.4" fill="black" />
<circle cx="22.0" cy="820.0" r="0.4" fill="black" />
<circle cx="22.0" cy="832.0" r="4.0" fill="black" />
<circle cx="38.0" cy="808.0" r="4.0" fill="black" />
<circle cx="38.0" cy="820.0" r="4.0" fill="black" />
<circle cx="38.0" cy="832.0" r="4.0" fill="black" /><text x="20" y="848" font-size="10">NUM</text>
<circle cx="62.0" cy="808.0" r="4.0" fill="black" />
<circle cx="62.0" cy="820.0" r="0.4" fill="black" />
<circle cx="62.0" cy="832.0" r="0.4" fill="black" />
<circle cx="78.0" cy="808.0" r="0.4" fill="black" />
<circle cx="78.0" cy="820.0" r="0.4" fill="black" />
<circle cx="78.0" cy="832.0" r="0.4" fill="black" /><text x="60" y="848" font-size="10">1</text>
<circle cx="102.0" cy="808.0" r="4.0" fill="black" />
<circle cx="102.0" cy="820.0" r="0.4" fill="black" />
<circle cx="102.0" cy="832.0" r="0.4" fill="black" />
<circle cx="118.0" cy="808.0" r="4.0" fill="black" />
<circle cx="118.0" cy="820.0" r="4.0" fill="black" />
<circle cx="118.0" cy="832.0" r="0.4" fill="black" /><text x="100" y="848" font-size="10">4</text>
</svg>