<svg width="1600" height="440" xmlns="http://www.w3.org/2000/svg">
<circle cx="22.0" cy="28.0" r="0.4" fill="black" />
<circle cx="22.0" cy="40.0" r="0.4" fill="black" />
<circle cx="22.0" cy="52.0" r="0.4" fill="black" />
<circle cx="38.0" cy="28.0" r="0.4" fill="black" />
<circle cx="38.0" cy="40.0" r="0.4" fill="black" />
<circle cx="38.0" cy="52.0" r="0.4" fill="black" />
<circle cx="62.0" cy="28.0" r="0.4" fill="black" />
<circle cx="62.0" cy="40.0" r="0.4" fill="black" />
<circle cx="62.0" cy="52.0" r="4.0" fill="black" />
<circle cx="78.0" cy="28.0" r="4.0" fill="black" />
<circle cx="78.0" cy="40.0" r="4.0" fill="black" />
<circle cx="78.0" cy="52.0" r="4.0" fill="black" />
<circle cx="102.0" cy="28.0" r="4.0" fill="black" />
<circle cx="102.0" cy="40.0" r="0.4" fill="black" />
<circle cx="102.0" cy="52.0" r="0.4" fill="black" />
<circle cx="118.0" cy="28.0" r="0.4" fill="black" />
<circle cx="118.0" cy="40.0" r="0.4" fill="black" />
<circle cx="118.0" cy="52.0" r="0.4" fill="black" />
<circle cx="142.0" cy="28.0" r="0.4" fill="black" />
<circle cx="142.0" cy="40.0" r="0.4" fill="black" />
<circle cx="142.0" cy="52.0" r="0.4" fill="black" />
<circle cx="158.0" cy="28.0" r="0.4" fill="black" />
<circle cx="158.0" cy="40.0" r="0.4" fill="black" />
<circle cx="158.0" cy="52.0" r="0.4" fill="black" />
<circle cx="22.0" cy="88.0" r="0.4" fill="black" />
<circle cx="22.0" cy="100.0" r="0.4" fill="black" />
<circle cx="22.0" cy="112.0" r="0.4" fill="black" />
<circle cx="38.0" cy="88.0" r="0.4" fill="black" />
<circle cx="38.0" cy="100.0" r="0.4" fill="black" />
<circle cx="38.0" cy="112.0" r="0.4" fill="black" />
<circle cx="62.0" cy="88.0" r="0.4" fill="black" />
<circle cx="62.0" cy="100.0" r="0.4" fill="black" />
<circle cx="62.0" cy="112.0" r="4.0" fill="black" />
<circle cx="78.0" cy="88.0" r="4.0" fill="black" />
<circle cx="78.0" cy="100.0" r="4.0" fill="black" />
<circle cx="78.0" cy="112.0" r="4.0" fill="black" />
<circle cx="102.0" cy="88.0" r="4.0" fill="black" />
<circle cx="102.0" cy="100.0" r="4.0" fill="black" />
<circle cx="102.0" cy="112.0" r="0.4" fill="black" />
<circle cx="118.0" cy="88.0" r="0.4" fill="black" />
<circle cx="118.0" cy="100.0" r="0.4" fill="black" />
<circle cx="118.0" cy="112.0" r="0.4" fill="black" />
<circle cx="142.0" cy="88.0" r="0.4" fill="black" />
<circle cx="142.0" cy="100.0" r="0.4" fill="black" />
<circle cx="142.0" cy="112.0" r="0.4" fill="black" />
<circle cx="158.0" cy="88.0" r="0.4" fill="black" />
<circle cx="158.0" cy="100.0" r="0.4" fill="black" />
<circle cx="158.0" cy="112.0" r="0.4" fill="black" />
<circle cx="22.0" cy="148.0" r="0.4" fill="black" />
<circle cx="22.0" cy="160.0" r="0.4" fill="black" />
<circle cx="22.0" cy="172.0" r="0.4" fill="black" />
<circle cx="38.0" cy="148.0" r="0.4" fill="black" />
<circle cx="38.0" cy="160.0" r="0.4" fill="black" />
<circle cx="38.0" cy="172.0" r="0.4" fill="black" />
<circle cx="62.0" cy="148.0" r="0.4" fill="black" />
<circle cx="62.0" cy="160.0" r="0.4" fill="black" />
<circle cx="62.0" cy="172.0" r="4.0" fill="black" />
<circle cx="78.0" cy="148.0" r="4.0" fill="black" />
<circle cx="78.0" cy="160.0" r="4.0" fill="black" />
<circle cx="78.0" cy="172.0" r="4.0" fill="black" />
<circle cx="102.0" cy="148.0" r="4.0" fill="black" />
<circle cx="102.0" cy="160.0" r="0.4" fill="black" />
<circle cx="102.0" cy="172.0" r="0.4" fill="black" />
<circle cx="118.0" cy="148.0" r="4.0" fill="black" />
<circle cx="118.0" cy="160.0" r="0.4" fill="black" />
<circle cx="118.0" cy="172.0" r="0.4" fill="black" />
<circle cx="142.0" cy="148.0" r="0.4" fill="black" />
<circle cx="142.0" cy="160.0" r="0.4" fill="black" />
<circle cx="142.0" cy="172.0" r="0.4" fill="black" />
<circle cx="158.0" cy="148.0" r="0.4" fill="black" />
<circle cx="158.0" cy="160.0" r="0.4" fill="black" />
<circle cx="158.0" cy="172.0" r="0.4" fill="black" />
<circle cx="22.0" cy="208.0" r="0.4" fill="black" />
<circle cx="22.0" cy="220.0" r="0.4" fill="black" />
<circle cx="22.0" cy="232.0" r="0.4" fill="black" />
<circle cx="38.0" cy="208.0" r="0.4" fill="black" />
<circle cx="38.0" cy="220.0" r="0.4" fill="black" />
<circle cx="38.0" cy="232.0" r="0.4" fill="black" />
<circle cx="62.0" cy="208.0" r="0.4" fill="black" />
<circle cx="62.0" cy="220.0" r="0.4" fill="black" />
<circle cx="62.0" cy="232.0" r="4.0" fill="black" />
<circle cx="78.0" cy="208.0" r="4.0" fill="black" />
<circle cx="78.0" cy="220.0" r="4.0" fill="black" />
<circle cx="78.0" cy="232.0" r="4.0" fill="black" />
<circle cx="102.0" cy="208.0" r="4.0" fill="black" />
<circle cx="102.0" cy="220.0" r="0.4" fill="black" />
<circle cx="102.0" cy="232.0" r="0.4" fill="black" />
<circle cx="118.0" cy="208.0" r="4.0" fill="black" />
<circle cx="118.0" cy="220.0" r="4.0" fill="black" />
<circle cx="118.0" cy="232.0" r="0.4" fill="black" />
<circle cx="142.0" cy="208.0" r="0.4" fill="black" />
<circle cx="142.0" cy="220.0" r="0.4" fill="black" />
<circle cx="142.0" cy="232.0" r="0.4" fill="black" />
<circle cx="158.0" cy="208.0" r="0.4" fill="black" />
<circle cx="158.0" cy="220.0" r="0.4" fill="black" />
<circle cx="158.0" cy="232.0" r="0.4" fill="black" />
<circle cx="22.0" cy="268.0" r="0.4" fill="black" />
<circle cx="22.0" cy="280.0" r="0.4" fill="black" />
<circle cx="22.0" cy="292.0" r="0.4" fill="black" />
<circle cx="38.0" cy="268.0" r="0.4" fill="black" />
<circle cx="38.0" cy="280.0" r="0.4" fill="black" />
<circle cx="38.0" cy="292.0" r="0.4" fill="black" />
<circle cx="62.0" cy="268.0" r="0.4" fill="black" />
<circle cx="62.0" cy="280.0" r="0.4" fill="black" />
<circle cx="62.0" cy="292.0" r="4.0" fill="black" />
<circle cx="78.0" cy="268.0" r="4.0" fill="black" />
<circle cx="78.0" cy="280.0" r="4.0" fill="black" />
<circle cx="78.0" cy="292.0" r="4.0" fill="black" />
<circle cx="102.0" cy="268.0" r="4.0" fill="black" />
<circle cx="102.0" cy="280.0" r="0.4" fill="black" />
<circle cx="102.0" cy="292.0" r="0.4" fill="black" />
<circle cx="118.0" cy="268.0" r="0.4" fill="black" />
<circle cx="118.0" cy="280.0" r="4.0" fill="black" />
<circle cx="118.0" cy="292.0" r="0.4" fill="black" />
<circle cx="142.0" cy="268.0" r="0.4" fill="black" />
<circle cx="142.0" cy="280.0" r="0.4" fill="black" />
<circle cx="142.0" cy="292.0" r="0.4" fill="black" />
<circle cx="158.0" cy="268.0" r="0.4" fill="black" />
<circle cx="158.0" cy="280.0" r="0.4" fill="black" />
<circle cx="158.0" cy="292.0" r="0.4" fill="black" />
<circle cx="22.0" cy="328.0" r="0.4" fill="black" />
<circle cx="22.0" cy="340.0" r="0.4" fill="black" />
<circle cx="22.0" cy="352.0" r="0.4" fill="black" />
<circle cx="38.0" cy="328.0" r="0.4" fill="black" />
<circle cx="38.0" cy="340.0" r="0.4" fill="black" />
<circle cx="38.0" cy="352.0" r="0.4" fill="black" />
</svg>