<svg width="1600" height="2060" xmlns="http://www.w3.org/2000/svg">
<circle cx="22.0" cy="28.0" r="0.4" fill="black" />
<circle cx="22.0" cy="40.0" r="0.4" fill="black" />
<circle cx="22.0" cy="52.0" r="4.0" fill="black" />
<circle cx="38.0" cy="28.0" r="4.0" fill="black" />
<circle cx="38.0" cy="40.0" r="4.0" fill="black" />
<circle cx="38.0" cy="52.0" r="4.0" fill="black" /><text x="20" y="68" font-size="10">NUM</text>
<circle cx="62.0" cy="28.0" r="4.0" fill="black" />
<circle cx="62.0" cy="40.0" r="0.4" fill="black" />
<circle cx="62.0" cy="52.0" r="0.4" fill="black" />
<circle cx="78.0" cy="28.0" r="0.4" fill="black" />
<circle cx="78.0" cy="40.0" r="0.4" fill="black" />
<circle cx="78.0" cy="52.0" r="0.4" fill="black" /><text x="60" y="68" font-size="10">1</text>
<circle cx="22.0" cy="88.0" r="4.0" fill="black" />
<circle cx="22.0" cy="100.0" r="4.0" fill="black" />
<circle cx="22.0" cy="112.0" r="0.4" fill="black" />
<circle cx="38.0" cy="88.0" r="0.4" fill="black" />
<circle cx="38.0" cy="100.0" r="0.4" fill="black" />
<circle cx="38.0" cy="112.0" r="0.4" fill="black" /><text x="20" y="128" font-size="10">2</text>
<circle cx="22.0" cy="148.0" r="4.0" fill="black" />
<circle cx="22.0" cy="160.0" r="0.4" fill="black" />
<circle cx="22.0" cy="172.0" r="0.4" fill="black" />
<circle cx="38.0" cy="148.0" r="4.0" fill="black" />
<circle cx="38.0" cy="160.0" r="0.4" fill="black" />
<circle cx="38.0" cy="172.0" r="0.4" fill="black" /><text x="20" y="188" font-size="10">3</text>
<circle cx="22.0" cy="208.0" r="4.0" fill="black" />
<circle cx="22.0" cy="220.0" r="0.4" fill="black" />
<circle cx="22.0" cy="232.0" r="0.4" fill="black" />
<circle cx="38.0" cy="208.0" r="4.0" fill="black" />
<circle cx="38.0" cy="220.0" r="4.0" fill="black" />
<circle cx="38.0" cy="232.0" r="0.4" fill="black" /><text x="20" y="248" font-size="10">4</text>
<circle cx="22.0" cy="268.0" r="4.0" fill="black" />
<circle cx="22.0" cy="280.0" r="0.4" fill="black" />
<circle cx="22.0" cy="292.0" r="0.4" fill="black" />
<circle cx="38.0" cy="268.0" r="0.4" fill="black" />
<circle cx="38.0" cy="280.0" r="4.0" fill="black" />
<circle cx="38.0" cy="292.0" r="0.4" fill="black" /><text x="20" y="308" font-size="10">5</text>
<circle cx="22.0" cy="328.0" r="4.0" fill="black" />
<circle cx="22.0" cy="340.0" r="4.0" fill="black" />
<circle cx="22.0" cy="352.0" r="0.4" fill="black" />
<circle cx="38.0" cy="328.0" r="4.0" fill="black" />
<circle cx="38.0" cy="340.0" r="0.4" fill="black" />
<circle cx="38.0" cy="352.0" r="0.4" fill="black" /><text x="20" y="368" font-size="10">6</text>
<circle cx="22.0" cy="388.0" r="4.0" fill="black" />
<circle cx="22.0" cy="400.0" r="4.0" fill="black" />
<circle cx="22.0" cy="412.0" r="0.4" fill="black" />
<circle cx="38.0" cy="388.0" r="4.0" fill="black" />
<circle cx="38.0" cy="400.0" r="4.0" fill="black" />
<circle cx="38.0" cy="412.0" r="0.4" fill="black" /><text x="20" y="428" font-size="10">7</text>
<circle cx="22.0" cy="448.0" r="4.0" fill="black" />
<circle cx="22.0" cy="460.0" r="4.0" fill="black" />
<circle cx="22.0" cy="472.0" r="0.4" fill="black" />
<circle cx="38.0" cy="448.0" r="0.4" fill="black" />
<circle cx="38.0" cy="460.0" r="4.0" fill="black" />
<circle cx="38.0" cy="472.0" r="0.4" fill="black" /><text x="20" y="488" font-size="10">8</text>
<circle cx="22.0" cy="508.0" r="0.4" fill="black" />
<circle cx="22.0" cy="520.0" r="4.0" fill="black" />
<circle cx="22.0" cy="532.0" r="0.4" fill="black" />
<circle cx="38.0" cy="508.0" r="4.0" fill="black" />
<circle cx="38.0" cy="520.0" r="0.4" fill="black" />
<circle cx="38.0" cy="532.0" r="0.4" fill="black" /><text x="20" y="548" font-size="10">9</text>
<circle cx="22.0" cy="568.0" r="4.0" fill="black" />
<circle cx="22.0" cy="580.0" r="0.4" fill="black" />
<circle cx="22.0" cy="592.0" r="0.4" fill="black" />
<circle cx="38.0" cy="568.0" r="0.4" fill="black" />
<circle cx="38.0" cy="580.0" r="0.4" fill="black" />
<circle cx="38.0" cy="592.0" r="0.4" fill="black" /><text x="20" y="608" font-size="10">1</text>
<circle cx="62.0" cy="568.0" r="0.4" fill="black" />
<circle cx="62.0" cy="580.0" r="4.0" fill="black" />
<circle cx="62.0" cy="592.0" r="0.4" fill="black" />
<circle cx="78.0" cy="568.0" r="4.0" fill="black" />
<circle cx="78.0" cy="580.0" r="4.0" fill="black" />
<circle cx="78.0" cy="592.0" r="0.4" fill="black" /><text x="60" y="608" font-size="10">0</text>
<circle cx="22.0" cy="628.0" r="4.0" fill="black" />
<circle cx="22.0" cy="640.0" r="0.4" fill="black" />
<circle cx="22.0" cy="652.0" r="0.4" fill="black" />
<circle cx="38.0" cy="628.0" r="0.4" fill="black" />
<circle cx="38.0" cy="640.0" r="0.4" fill="black" />
<circle cx="38.0" cy="652.0" r="0.4" fill="black" /><text x="20" y="668" font-size="10">1</text>
<circle cx="62.0" cy="628.0" r="4.0" fill="black" />
<circle cx="62.0" cy="640.0" r="0.4" fill="black" />
<circle cx="62.0" cy="652.0" r="0.4" fill="black" />
<circle cx="78.0" cy="628.0" r="0.4" fill="black" />
<circle cx="78.0" cy="640.0" r="0.4" fill="black" />
<circle cx="78.0" cy="652.0" r="0.4" fill="black" /><text x="60" y="668" font-size="10">1</text>
<circle cx="22.0" cy="688.0" r="4.0" fill="black" />
<circle cx="22.0" cy="700.0" r="0.4" fill="black" />
<circle cx="22.0" cy="712.0" r="0.4" fill="black" />
<circle cx="38.0" cy="688.0" r="0.4" fill="black" />
<circle cx="38.0" cy="700.0" r="0.4" fill="black" />
<circle cx="38.0" cy="712.0" r="0.4" fill="black" /><text x="20" y="728" font-size="10">1</text>
<circle cx="62.0" cy="688.0" r="4.0" fill="black" />
<circle cx="62.0" cy="700.0" r="4.0" fill="black" />
<circle cx="62.0" cy="712.0" r="0.4" fill="black" />
<circle cx="78.0" cy="688.0" r="0.4" fill="black" />
<circle cx="78.0" cy="700.0" r="0.4" fill="black" />
<circle cx="78.0" cy="712.0" r="0.4" fill="black" /><text x="60" y="728" font-size="10">2</text>
<circle cx="22.0" cy="748.0" r="4.0" fill="black" />
<circle cx="22.0" cy="760.0" r="0.4" fill="black" />
<circle cx="22.0" cy="772.0" r="0.4" fill="black" />
<circle cx="38.0" cy="748.0" r="0.4" fill="black" />
<circle cx="38.0" cy="760.0" r="0.4" fill="black" />
<circle cx="38.0" cy="772.0" r="0.4" fill="black" /><text x="20" y="788" font-size="10">1</text>
<circle cx="62.0" cy="748.0" r="4.0" fill="black" />
<circle cx="62.0" cy="760.0" r="0.4" fill="black" />
<circle cx="62.0" cy="772.0" r="0.4" fill="black" />
<circle cx="78.0" cy="748.0" r="4.0" fill="black" />
<circle cx="78.0" cy="760.0" r="0.4" fill="black" />
<circle cx="78.0" cy="772.0" r="0.4" fill="black" /><text x="60" y="788" font-size="10">3</text>
<circle cx="22.0" cy="808.0" r="4.0" fill="black" />
<circle cx="22.0" cy="820.0" r="0.4" fill="black" />
<circle cx="22.0" cy="832.0" r="0.4" fill="black" />
<circle cx="38.0" cy="808.0" r="0.4" fill="black" />
<circle cx="38.0" cy="820.0" r="0.4" fill="black" />
<circle cx="38.0" cy="832.0" r="0.4" fill="black" /><text x="20" y="848" font-size="10">1</text>
<circle cx="62.0" cy="808.0" r="4.0" fill="black" />
<circle cx="62.0" cy="820.0" r="0.4" fill="black" />
<circle cx="62.0" cy="832.0" r="0.4" fill="black" />
<circle cx="78.0" cy="808.0" r="4.0" fill="black" />
<circle cx="78.0" cy="820.0" r="4.0" fill="black" />
<circle cx="78.0" cy="832.0" r="0.4" fill="black" /><text x="60" y="848" font-size="10">4</text>
<circle cx="22.0" cy="868.0" r="4.0" fill="black" />
<circle cx="22.0" cy="880.0" r="0.4" fill="black" />
<circle cx="22.0" cy="892.0" r="0.4" fill="black" />
<circle cx="38.0" cy="868.0" r="0.4" fill="black" />
<circle cx="38.0" cy="880.0" r="0.4" fill="black" />
<circle cx="38.0" cy="892.0" r="0.4" fill="black" /><text x="20" y="908" font-size="10">1</text>
<circle cx="62.0" cy="868.0" r="4.0" fill="black" />
<circle cx="62.0" cy="880.0" r="0.4" fill="black" />
<circle cx="62.0" cy="892.0" r="0.4" fill="black" />
<circle cx="78.0" cy="868.0" r="0.4" fill="black" />
<circle cx="78.0" cy="880.0" r="4.0" fill="black" />
<circle cx="78.0" cy="892.0" r="0.4" fill="black" /><text x="60" y="908" font-size="10">5</text>
<circle cx="22.0" cy="928.0" r="4.0" fill="black" />
<circle cx="22.0" cy="940.0" r="0.4" fill="black" />
<circle cx="22.0" cy="952.0" r="0.4" fill="black" />
<circle cx="38.0" cy="928.0" r="0.4" fill="black" />
<circle cx="38.0" cy="940.0" r="0.4" fill="black" />
<circle cx="38.0" cy="952.0" r="0.4" fill="black" /><text x="20" y="968" font-size="10">1</text>
<circle cx="62.0" cy="928.0" r="4.0" fill="black" />
<circle cx="62.0" cy="940.0" r="4.0" fill="black" />
<circle cx="62.0" cy="952.0" r="0.4" fill="black" />
<circle cx="78.0" cy="928.0" r="4.0" fill="black" />
<circle cx="78.0" cy="940.0" r="0.4" fill="black" />
<circle cx="78.0" cy="952.0" r="0.4" fill="black" /><text x="60" y="968" font-size="10">6</text>
<circle cx="22.0" cy="988.0" r="4.0" fill="black" />
<circle cx="22.0" cy="1000.0" r="0.4" fill="black" />
<circle cx="22.0" cy="1012.0" r="0.4" fill="black" />
<circle cx="38.0" cy="988.0" r="0.4" fill="black" />
<circle cx="38.0" cy="1000.0" r="0.4" fill="black" />
<circle cx="38.0" cy="1012.0" r="0.4" fill="black" /><text x="20" y="1028" font-size="10">1</text>
<circle cx="62.0" cy="988.0" r="4.0" fill="black" />
<circle cx="62.0" cy="1000.0" r="4.0" fill="black" />
<circle cx="62.0" cy="1012.0" r="0.4" fill="black" />
<circle cx="78.0" cy="988.0" r="4.0" fill="black" />
<circle cx="78.0" cy="1000.0" r="4.0" fill="black" />
<circle cx="78.0" cy="1012.0" r="0.4" fill="black" /><text x="60" y="1028" font-size="10">7</text>
<circle cx="22.0" cy="1048.0" r="4.0" fill="black" />
<circle cx="22.0" cy="1060.0" r="0.4" fill="black" />
<circle cx="22.0" cy="1072.0" r="0.4" fill="black" />
<circle cx="38.0" cy="1048.0" r="0.4" fill="black" />
<circle cx="38.0" cy="1060.0" r="0.4" fill="black" />
<circle cx="38.0" cy="1072.0" r="0.4" fill="black" /><text x="20" y="1088" font-size="10">1</text>
<circle cx="62.0" cy="1048.0" r="4.0" fill="black" />
<circle cx="62.0" cy="1060.0" r="4.0" fill="black" />
<circle cx="62.0" cy="1072.0" r="0.4" fill="black" />
<circle cx="78.0" cy="1048.0" r="0.4" fill="black" />
<circle cx="78.0" cy="1060.0" r="4.0" fill="black" />
<circle cx="78.0" cy="1072.0" r="0.4" fill="black" /><text x="60" y="1088" font-size="10">8</text>
<circle cx="22.0" cy="1108.0" r="4.0" fill="black" />
<circle cx="22.0" cy="1120.0" r="0.4" fill="black" />
<circle cx="22.0" cy="1132.0" r="0.4" fill="black" />
<circle cx="38.0" cy="1108.0" r="0.4" fill="black" />
<circle cx="38.0" cy="1120.0" r="0.4" fill="black" />
<circle cx="38.0" cy="1132.0" r="0.4" fill="black" /><text x="20" y="1148" font-size="10">1</text>
<circle cx="62.0" cy="1108.0" r="0.4" fill="black" />
<circle cx="62.0" cy="1120.0" r="4.0" fill="black" />
<circle cx="62.0" cy="1132.0" r="0.4" fill="black" />
<circle cx="78.0" cy="1108.0" r="4.0" fill="black" />
<circle cx="78.0" cy="1120.0" r="0.4" fill="black" />
<circle cx="78.0" cy="1132.0" r="0.4" fill="black" /><text x="60" y="1148" font-size="10">9</text>
<circle cx="22.0" cy="1168.0" r="4.0" fill="black" />
<circle cx="22.0" cy="1180.0" r="4.0" fill="black" />
<circle cx="22.0" cy="1192.0" r="0.4" fill="black" />
<circle cx="38.0" cy="1168.0" r="0.4" fill="black" />
<circle cx="38.0" cy="1180.0" r="0.4" fill="black" />
<circle cx="38.0" cy="1192.0" r="0.4" fill="black" /><text x="20" y="1208" font-size="10">2</text>
<circle cx="62.0" cy="1168.0" r="0.4" fill="black" />
<circle cx="62.0" cy="1180.0" r="4.0" fill="black" />
<circle cx="62.0" cy="1192.0" r="0.4" fill="black" />
<circle cx="78.0" cy="1168.0" r="4.0" fill="black" />
<circle cx="78.0" cy="1180.0" r="4.0" fill="black" />
<circle cx="78.0" cy="1192.0" r="0.4" fill="black" /><text x="60" y="1208" font-size="10">0</text>
<circle cx="22.0" cy="1228.0" r="4.0" fill="black" />
<circle cx="22.0" cy="1240.0" r="4.0" fill="black" />
<circle cx="22.0" cy="1252.0" r="0.4" fill="black" />
<circle cx="38.0" cy="1228.0" r="0.4" fill="black" />
<circle cx="38.0" cy="1240.0" r="0.4" fill="black" />
<circle cx="38.0" cy="1252.0" r="0.4" fill="black" /><text x="20" y="1268" font-size="10">2</text>
<circle cx="62.0" cy="1228.0" r="4.0" fill="black" />
<circle cx="62.0" cy="1240.0" r="0.4" fill="black" />
<circle cx="62.0" cy="1252.0" r="0.4" fill="black" />
<circle cx="78.0" cy="1228.0" r="0.4" fill="black" />
<circle cx="78.0" cy="1240.0" r="0.4" fill="black" />
<circle cx="78.0" cy="1252.0" r="0.4" fill="black" /><text x="60" y="1268" font-size="10">1</text>
<circle cx="22.0" cy="1288.0" r="4.0" fill="black" />
<circle cx="22.0" cy="1300.0" r="4.0" fill="black" />
<circle cx="22.0" cy="1312.0" r="0.4" fill="black" />
<circle cx="38.0" cy="1288.0" r="0.4" fill="black" />
<circle cx="38.0" cy="1300.0" r="0.4" fill="black" />
<circle cx="38.0" cy="1312.0" r="0.4" fill="black" /><text x="20" y="1328" font-size="10">2</text>
<circle cx="62.0" cy="1288.0" r="4.0" fill="black" />
<circle cx="62.0" cy="1300.0" r="4.0" fill="black" />
<circle cx="62.0" cy="1312.0" r="0.4" fill="black" />
<circle cx="78.0" cy="1288.0" r="0.4" fill="black" />
<circle cx="78.0" cy="1300.0" r="0.4" fill="black" />
<circle cx="78.0" cy="1312.0" r="0.4" fill="black" /><text x="60" y="1328" font-size="10">2</text>
<circle cx="22.0" cy="1348.0" r="4.0" fill="black" />
<circle cx="22.0" cy="1360.0" r="4.0" fill="black" />
<circle cx="22.0" cy="1372.0" r="0.4" fill="black" />
<circle cx="38.0" cy="1348.0" r="0.4" fill="black" />
<circle cx="38.0" cy="1360.0" r="0.4" fill="black" />
<circle cx="38.0" cy="1372.0" r="0.4" fill="black" /><text x="20" y="1388" font-size="10">2</text>
<circle cx="62.0" cy="1348.0" r="4.0" fill="black" />
<circle cx="62.0" cy="1360.0" r="0.4" fill="black" />
<circle cx="62.0" cy="1372.0" r="0.4" fill="black" />
<circle cx="78.0" cy="1348.0" r="4.0" fill="black" />
<circle cx="78.0" cy="1360.0" r="0.4" fill="black" />
<circle cx="78.0" cy="1372.0" r="0.4" fill="black" /><text x="60" y="1388" font-size="10">3</text>
<circle cx="22.0" cy="1408.0" r="4.0" fill="black" />
<circle cx="22.0" cy="1420.0" r="4.0" fill="black" />
<circle cx="22.0" cy="1432.0" r="0.4" fill="black" />
<circle cx="38.0" cy="1408.0" r="0.4" fill="black" />
<circle cx="38.0" cy="1420.0" r="0.4" fill="black" />
<circle cx="38.0" cy="1432.0" r="0.4" fill="black" /><text x="20" y="1448" font-size="10">2</text>
<circle cx="62.0" cy="1408.0" r="4.0" fill="black" />
<circle cx="62.0" cy="1420.0" r="0.4" fill="black" />
<circle cx="62.0" cy="1432.0" r="0.4" fill="black" />
<circle cx="78.0" cy="1408.0" r="4.0" fill="black" />
<circle cx="78.0" cy="1420.0" r="4.0" fill="black" />
<circle cx="78.0" cy="1432.0" r="0.4" fill="black" /><text x="60" y="1448" font-size="10">4</text>
<circle cx="22.0" cy="1468.0" r="4.0" fill="black" />
<circle cx="22.0" cy="1480.0" r="4.0" fill="black" />
<circle cx="22.0" cy="1492.0" r="0.4" fill="black" />
<circle cx="38.0" cy="1468.0" r="0.4" fill="black" />
<circle cx="38.0" cy="1480.0" r="0.4" fill="black" />
<circle cx="38.0" cy="1492.0" r="0.4" fill="black" /><text x="20" y="1508" font-size="10">2</text>
<circle cx="62.0" cy="1468.0" r="4.0" fill="black" />
<circle cx="62.0" cy="1480.0" r="0.4" fill="black" />
<circle cx="62.0" cy="1492.0" r="0.4" fill="black" />
<circle cx="78.0" cy="1468.0" r="0.4" fill="black" />
<circle cx="78.0" cy="1480.0" r="4.0" fill="black" />
<circle cx="78.0" cy="1492.0" r="0.4" fill="black" /><text x="60" y="1508" font-size="10">5</text>
<circle cx="22.0" cy="1528.0" r="4.0" fill="black" />
<circle cx="22.0" cy="1540.0" r="4.0" fill="black" />
<circle cx="22.0" cy="1552.0" r="0.4" fill="black" />
<circle cx="38.0" cy="1528.0" r="0.4" fill="black" />
<circle cx="38.0" cy="1540.0" r="0.4" fill="black" />
<circle cx="38.0" cy="1552.0" r="0.4" fill="black" /><text x="20" y="1568" font-size="10">2</text>
<circle cx="62.0" cy="1528.0" r="4.0" fill="black" />
<circle cx="62.0" cy="1540.0" r="4.0" fill="black" />
<circle cx="62.0" cy="1552.0" r="0.4" fill="black" />
<circle cx="78.0" cy="1528.0" r="4.0" fill="black" />
<circle cx="78.0" cy="1540.0" r="0.4" fill="black" />
<circle cx="78.0" cy="1552.0" r="0.4" fill="black" /><text x="60" y="1568" font-size="10">6</text>
<circle cx="22.0" cy="1588.0" r="4.0" fill="black" />
<circle cx="22.0" cy="1600.0" r="4.0" fill="black" />
<circle cx="22.0" cy="1612.0" r="0.4" fill="black" />
<circle cx="38.0" cy="1588.0" r="0.4" fill="black" />
<circle cx="38.0" cy="1600.0" r="0.4" fill="black" />
<circle cx="38.0" cy="1612.0" r="0.4" fill="black" /><text x="20" y="1628" font-size="10">2</text>
<circle cx="62.0" cy="1588.0" r="4.0" fill="black" />
<circle cx="62.0" cy="1600.0" r="4.0" fill="black" />
<circle cx="62.0" cy="1612.0" r="0.4" fill="black" />
<circle cx="78.0" cy="1588.0" r="4.0" fill="black" />
<circle cx="78.0" cy="1600.0" r="4.0" fill="black" />
<circle cx="78.0" cy="1612.0" r="0.4" fill="black" /><text x="60" y="1628" font-size="10">7</text>
<circle cx="22.0" cy="1648.0" r="4.0" fill="black" />
<circle cx="22.0" cy="1660.0" r="4.0" fill="black" />
<circle cx="22.0" cy="1672.0" r="0.4" fill="black" />
<circle cx="38.0" cy="1648.0" r="0.4" fill="black" />
<circle cx="38.0" cy="1660.0" r="0.4" fill="black" />
<circle cx="38.0" cy="1672.0" r="0.4" fill="black" /><text x="20" y="1688" font-size="10">2</text>
<circle cx="62.0" cy="1648.0" r="4.0" fill="black" />
<circle cx="62.0" cy="1660.0" r="4.0" fill="black" />
<circle cx="62.0" cy="1672.0" r="0.4" fill="black" />
<circle cx="78.0" cy="1648.0" r="0.4" fill="black" />
<circle cx="78.0" cy="1660.0" r="4.0" fill="black" />
<circle cx="78.0" cy="1672.0" r="0.4" fill="black" /><text x="60" y="1688" font-size="10">8</text>
<circle cx="22.0" cy="1708.0" r="4.0" fill="black" />
<circle cx="22.0" cy="1720.0" r="4.0" fill="black" />
<circle cx="22.0" cy="1732.0" r="0.4" fill="black" />
<circle cx="38.0" cy="1708.0" r="0.4" fill="black" />
<circle cx="38.0" cy="1720.0" r="0.4" fill="black" />
<circle cx="38.0" cy="1732.0" r="0.4" fill="black" /><text x="20" y="1748" font-size="10">2</text>
<circle cx="62.0" cy="1708.0" r="0.4" fill="black" />
<circle cx="62.0" cy="1720.0" r="4.0" fill="black" />
<circle cx="62.0" cy="1732.0" r="0.4" fill="black" />
<circle cx="78.0" cy="1708.0" r="4.0" fill="black" />
<circle cx="78.0" cy="1720.0" r="0.4" fill="black" />
<circle cx="78.0" cy="1732.0" r="0.4" fill="black" /><text x="60" y="1748" font-size="10">9</text>
<circle cx="22.0" cy="1768.0" r="4.0" fill="black" />
<circle cx="22.0" cy="1780.0" r="0.4" fill="black" />
<circle cx="22.0" cy="1792.0" r="0.4" fill="black" />
<circle cx="38.0" cy="1768.0" r="4.0" fill="black" />
<circle cx="38.0" cy="1780.0" r="0.4" fill="black" />
<circle cx="38.0" cy="1792.0" r="0.4" fill="black" /><text x="20" y="1808" font-size="10">3</text>
<circle cx="62.0" cy="1768.0" r="0.4" fill="black" />
<circle cx="62.0" cy="1780.0" r="4.0" fill="black" />
<circle cx="62.0" cy="1792.0" r="0.4" fill="black" />
<circle cx="78.0" cy="1768.0" r="4.0" fill="black" />
<circle cx="78.0" cy="1780.0" r="4.0" fill="black" />
<circle cx="78.0" cy="1792.0" r="0.4" fill="black" /><text x="60" y="1808" font-size="10">0</text>
<circle cx="22.0" cy="1828.0" r="4.0" fill="black" />
<circle cx="22.0" cy="1840.0" r="0.4" fill="black" />
<circle cx="22.0" cy="1852.0" r="0.4" fill="black" />
<circle cx="38.0" cy="1828.0" r="4.0" fill="black" />
<circle cx="38.0" cy="1840.0" r="0.4" fill="black" />
<circle cx="38.0" cy="1852.0" r="0.4" fill="black" /><text x="20" y="1868" font-size="10">3</text>
<circle cx="62.0" cy="1828.0" r="4.0" fill="black" />
<circle cx="62.0" cy="1840.0" r="0.4" fill="black" />
<circle cx="62.0" cy="1852.0" r="0.4" fill="black" />
<circle cx="78.0" cy="1828.0" r="0.4" fill="black" />
<circle cx="78.0" cy="1840.0" r="0.4" fill="black" />
<circle cx="78.0" cy="1852.0" r="0.4" fill="black" /><text x="60" y="1868" font-size="10">1</text>
<circle cx="22.0" cy="1888.0" r="4.0" fill="black" />
<circle cx="22.0" cy="1900.0" r="0.4" fill="black" />
<circle cx="22.0" cy="1912.0" r="0.4" fill="black" />
<circle cx="38.0" cy="1888.0" r="4.0" fill="black" />
<circle cx="38.0" cy="1900.0" r="0.4" fill="black" />
<circle cx="38.0" cy="1912.0" r="0.4" fill="black" /><text x="20" y="1928" font-size="10">3</text>
<circle cx="62.0" cy="1888.0" r="4.0" fill="black" />
<circle cx="62.0" cy="1900.0" r="4.0" fill="black" />
<circle cx="62.0" cy="1912.0" r="0.4" fill="black" />
<circle cx="78.0" cy="1888.0" r="0.4" fill="black" />
<circle cx="78.0" cy="1900.0" r="0.4" fill="black" />
<circle cx="78.0" cy="1912.0" r="0.4" fill="black" /><text x="60" y="1928" font-size="10">2</text>
<circle cx="22.0" cy="1948.0" r="4.0" fill="black" />
<circle cx="22.0" cy="1960.0" r="0.4" fill="black" />
<circle cx="22.0" cy="1972.0" r="0.4" fill="black" />
<circle cx="38.0" cy="1948.0" r="4.0" fill="black" />
<circle cx="38.0" cy="1960.0" r="0.4" fill="black" />
<circle cx="38.0" cy="1972.0" r="0.4" fill="black" /><text x="20" y="1988" font-size="10">3</text>
<circle cx="62.0" cy="1948.0" r="4.0" fill="black" />
<circle cx="62.0" cy="1960.0" r="0.4" fill="black" />
<circle cx="62.0" cy="1972.0" r="0.4" fill="black" />
<circle cx="78.0" cy="1948.0" r="4.0" fill="black" />
<circle cx="78.0" cy="1960.0" r="0.4" fill="black" />
<circle cx="78.0" cy="1972.0" r="0.4" fill="black" /><text x="60" y="1988" font-size="10">3</text>
<circle cx="102.0" cy="1948.0" r="0.4" fill="black" />
<circle cx="102.0" cy="1960.0" r="0.4" fill="black" />
<circle cx="102.0" cy="1972.0" r="0.4" fill="black" />
<circle cx="118.0" cy="1948.0" r="0.4" fill="black" />
<circle cx="118.0" cy="1960.0" r="0.4" fill="black" />
<circle cx="118.0" cy="1972.0" r="0.4" fill="black" /><text x="100" y="1988" font-size="10">ESP</text>
</svg>