<svg width="1600" height="300" xmlns="http://www.w3.org/2000/svg">
<circle cx="12.0" cy="8.0" r="0.4" fill="black" />
<circle cx="12.0" cy="20.0" r="0.4" fill="black" />
<circle cx="12.0" cy="32.0" r="4.0" fill="black" />
<circle cx="28.0" cy="8.0" r="4.0" fill="black" />
<circle cx="28.0" cy="20.0" r="4.0" fill="black" />
<circle cx="28.0" cy="32.0" r="4.0" fill="black" />
<circle cx="52.0" cy="8.0" r="4.0" fill="black" />
<circle cx="52.0" cy="20.0" r="0.4" fill="black" />
<circle cx="52.0" cy="32.0" r="0.4" fill="black" />
<circle cx="68.0" cy="8.0" r="0.4" fill="black" />
<circle cx="68.0" cy="20.0" r="0.4" fill="black" />
<circle cx="68.0" cy="32.0" r="0.4" fill="black" />
<circle cx="92.0" cy="8.0" r="4.0" fill="black" />
<circle cx="92.0" cy="20.0" r="4.0" fill="black" />
<circle cx="92.0" cy="32.0" r="0.4" fill="black" />
<circle cx="108.0" cy="8.0" r="0.4" fill="black" />
<circle cx="108.0" cy="20.0" r="0.4" fill="black" />
<circle cx="108.0" cy="32.0" r="0.4" fill="black" />
<circle cx="132.0" cy="8.0" r="4.0" fill="black" />
<circle cx="132.0" cy="20.0" r="0.4" fill="black" />
<circle cx="132.0" cy="32.0" r="0.4" fill="black" />
<circle cx="148.0" cy="8.0" r="4.0" fill="black" />
<circle cx="148.0" cy="20.0" r="0.4" fill="black" />
<circle cx="148.0" cy="32.0" r="0.4" fill="black" />
<circle cx="172.0" cy="8.0" r="0.4" fill="black" />
<circle cx="172.0" cy="20.0" r="0.4" fill="black" />
<circle cx="172.0" cy="32.0" r="0.4" fill="black" />
<circle cx="188.0" cy="8.0" r="0.4" fill="black" />
<circle cx="188.0" cy="20.0" r="0.4" fill="black" />
<circle cx="188.0" cy="32.0" r="0.4" fill="black" />
</svg>