<svg width="480" height="7140" xmlns="http://www.w3.org/2000/svg">
<circle cx="12.0" cy="8.0" r="4.0" fill="black" />
<circle cx="12.0" cy="20.0" r="4.0" fill="black" />
<circle cx="12.0" cy="32.0" r="4.0" fill="black" />
<circle cx="28.0" cy="8.0" r="0.4" fill="black" />
<circle cx="28.0" cy="20.0" r="4.0" fill="black" />
<circle cx="28.0" cy="32.0" r="0.4" fill="black" />
<circle cx="52.0" cy="8.0" r="0.4" fill="black" />
<circle cx="52.0" cy="20.0" r="4.0" fill="black" />
<circle cx="52.0" cy="32.0" r="0.4" fill="black" />
<circle cx="68.0" cy="8.0" r="4.0" fill="black" />
<circle cx="68.0" cy="20.0" r="0.4" fill="black" />
<circle cx="68.0" cy="32.0" r="0.4" fill="black" />
<circle cx="92.0" cy="8.0" r="4.0" fill="black" />
<circle cx="92.0" cy="20.0" r="4.0" fill="black" />
<circle cx="92.0" cy="32.0" r="4.0" fill="black" />
<circle cx="108.0" cy="8.0" r="4.0" fill="black" />
<circle cx="108.0" cy="20.0" r="0.4" fill="black" />
<circle cx="108.0" cy="32.0" r="0.4" fill="black" />
<circle cx="132.0" cy="8.0" r="0.4" fill="black" />
<circle cx="132.0" cy="20.0" r="0.4" fill="black" />
<circle cx="132.0" cy="32.0" r="0.4" fill="black" />
<circle cx="148.0" cy="8.0" r="0.4" fill="black" />
<circle cx="148.0" cy="20.0" r="0.4" fill="black" />
<circle cx="148.0" cy="32.0" r="0.4" fill="black" />
<circle cx="172.0" cy="8.0" r="0.4" fill="black" />
<circle cx="172.0" cy="20.0" r="0.4" fill="black" />
<circle cx="172.0" cy="32.0" r="4.0" fill="black" />
<circle cx="188.0" cy="8.0" r="0.4" fill="black" />
<circle cx="188.0" cy="20.0" r="4.0" fill="black" />
<circle cx="188.0" cy="32.0" r="4.0" fill="black" />
<circle cx="212.0" cy="8.0" r="4.0" fill="black" />
<circle cx="212.0" cy="20.0" r="4.0" fill="black" />
<circle cx="212.0" cy="32.0" r="4.0" fill="black" />
<circle cx="228.0" cy="8.0" r="4.0" fill="black" />
<circle cx="228.0" cy="20.0" r="4.0" fill="black" />
<circle cx="228.0" cy="32.0" r="4.0" fill="black" />
<circle cx="252.0" cy="8.0" r="0.4" fill="black" />
<circle cx="252.0" cy="20.0" r="0.4" fill="black" />
<circle cx="252.0" cy="32.0" r="0.4" fill="black" />
<circle cx="268.0" cy="8.0" r="0.4" fill="black" />
<circle cx="268.0" cy="20.0" r="0.4" fill="black" />
<circle cx="268.0" cy="32.0" r="0.4" fill="black" />
<circle cx="292.0" cy="8.0" r="0.4" fill="black" />
<circle cx="292.0" cy="20.0" r="4.0" fill="black" />
<circle cx="292.0" cy="32.0" r="0.4" fill="black" />
<circle cx="308.0" cy="8.0" r="4.0" fill="black" />
<circle cx="308.0" cy="20.0" r="4.0" fill="black" />
<circle cx="308.0" cy="32.0" r="4.0" fill="black" />
<circle cx="332.0" cy="8.0" r="0.4" fill="black" />
<circle cx="332.0" cy="20.0" r="4.0" fill="black" />
<circle cx="332.0" cy="32.0" r="4.0" fill="black" />
<circle cx="348.0" cy="8.0" r="0.4" fill="black" />
<circle cx="348.0" cy="20.0" r="0.4" fill="black" />
<circle cx="348.0" cy="32.0" r="0.4" fill="black" />
<circle cx="372.0" cy="8.0" r="4.0" fill="black" />
<circle cx="372.0" cy="20.0" r="0.4" fill="black" />
<circle cx="372.0" cy="32.0" r="0.4" fill="black" />
<circle cx="388.0" cy="8.0" r="4.0" fill="black" />
<circle cx="388.0" cy="20.0" r="4.0" fill="black" />
<circle cx="388.0" cy="32.0" r="0.4" fill="black" />
<circle cx="412.0" cy="8.0" r="4.0" fill="black" />
<circle cx="412.0" cy="20.0" r="4.0" fill="black" />
<circle cx="412.0" cy="32.0" r="4.0" fill="black" />
<circle cx="428.0" cy="8.0" r="0.4" fill="black" />
<circle cx="428.0" cy="20.0" r="4.0" fill="black" />
<circle cx="428.0" cy="32.0" r="0.4" fill="black" />
<circle cx="452.0" cy="8.0" r="0.4" fill="black" />
<circle cx="452.0" cy="20.0" r="4.0" fill="black" />
<circle cx="452.0" cy="32.0" r="0.4" fill="black" />
<circle cx="468.0" cy="8.0" r="4.0" fill="black" />
<circle cx="468.0" cy="20.0" r="0.4" fill="black" />
<circle cx="468.0" cy="32.0" r="0.4" fill="black" />
<circle cx="12.0" cy="68.0" r="4.0" fill="black" />
<circle cx="12.0" cy="80.0" r="4.0" fill="black" />
<circle cx="12.0" cy="92.0" r="4.0" fill="black" />
<circle cx="28.0" cy="68.0" r="4.0" fill="black" />
<circle cx="28.0" cy="80.0" r="0.4" fill="black" />
<circle cx="28.0" cy="92.0" r="0.4" fill="black" />
<circle cx="52.0" cy="68.0" r="0.4" fill="black" />
<circle cx="52.0" cy="80.0" r="0.4" fill="black" />
<circle cx="52.0" cy="92.0" r="0.4" fill="black" />
<circle cx="68.0" cy="68.0" r="0.4" fill="black" />
<circle cx="68.0" cy="80.0" r="0.4" fill="black" />
<circle cx="68.0" cy="92.0" r="0.4" fill="black" />
<circle cx="92.0" cy="68.0" r="0.4" fill="black" />
<circle cx="92.0" cy="80.0" r="0.4" fill="black" />
<circle cx="92.0" cy="92.0" r="4.0" fill="black" />
<circle cx="108.0" cy="68.0" r="0.4" fill="black" />
<circle cx="108.0" cy="80.0" r="4.0" fill="black" />
<circle cx="108.0" cy="92.0" r="4.0" fill="black" />
<circle cx="132.0" cy="68.0" r="4.0" fill="black" />
<circle cx="132.0" cy="80.0" r="4.0" fill="black" />
<circle cx="132.0" cy="92.0" r="4.0" fill="black" />
<circle cx="148.0" cy="68.0" r="4.0" fill="black" />
<circle cx="148.0" cy="80.0" r="4.0" fill="black" />
<circle cx="148.0" cy="92.0" r="4.0" fill="black" />
<circle cx="172.0" cy="68.0" r="0.4" fill="black" />
<circle cx="172.0" cy="80.0" r="0.4" fill="black" />
<circle cx="172.0" cy="92.0" r="0.4" fill="black" />
<circle cx="188.0" cy="68.0" r="0.4" fill="black" />
<circle cx="188.0" cy="80.0" r="0.4" fill="black" />
<circle cx="188.0" cy="92.0" r="0.4" fill="black" />
<circle cx="212.0" cy="68.0" r="0.4" fill="black" />
<circle cx="212.0" cy="80.0" r="4.0" fill="black" />
<circle cx="212.0" cy="92.0" r="0.4" fill="black" />
<circle cx="228.0" cy="68.0" r="4.0" fill="black" />
<circle cx="228.0" cy="80.0" r="4.0" fill="black" />
<circle cx="228.0" cy="92.0" r="4.0" fill="black" />
<circle cx="252.0" cy="68.0" r="0.4" fill="black" />
<circle cx="252.0" cy="80.0" r="4.0" fill="black" />
<circle cx="252.0" cy="92.0" r="4.0" fill="black" />
<circle cx="268.0" cy="68.0" r="0.4" fill="black" />
<circle cx="268.0" cy="80.0" r="0.4" fill="black" />
<circle cx="268.0" cy="92.0" r="0.4" fill="black" />
<circle cx="292.0" cy="68.0" r="4.0" fill="black" />
<circle cx="292.0" cy="80.0" r="0.4" fill="black" />
<circle cx="292.0" cy="92.0" r="0.4" fill="black" />
<circle cx="308.0" cy="68.0" r="4.0" fill="black" />
<circle cx="308.0" cy="80.0" r="4.0" fill="black" />
<circle cx="308.0" cy="92.0" r="0.4" fill="black" />
<circle cx="332.0" cy="68.0" r="4.0" fill="black" />
<circle cx="332.0" cy="80.0" r="4.0" fill="black" />
<circle cx="332.0" cy="92.0" r="4.0" fill="black" />
<circle cx="348.0" cy="68.0" r="0.4" fill="black" />
<circle cx="348.0" cy="80.0" r="4.0" fill="black" />
<circle cx="348.0" cy="92.0" r="0.4" fill="black" />
<circle cx="372.0" cy="68.0" r="0.4" fill="black" />
<circle cx="372.0" cy="80.0" r="4.0" fill="black" />
<circle cx="372.0" cy="92.0" r="0.4" fill="black" />
<circle cx="388.0" cy="68.0" r="4.0" fill="black" />
<circle cx="388.0" cy="80.0" r="0.4" fill="black" />
<circle cx="388.0" cy="92.0" r="0.4" fill="black" />
<circle cx="412.0" cy="68.0" r="4.0" fill="black" />
<circle cx="412.0" cy="80.0" r="4.0" fill="black" />
<circle cx="412.0" cy="92.0" r="4.0" fill="black" />
<circle cx="428.0" cy="68.0" r="4.0" fill="black" />
<circle cx="428.0" cy="80.0" r="0.4" fill="black" />
<circle cx="428.0" cy="92.0" r="0.4" fill="black" />
<circle cx="452.0" cy="68.0" r="0.4" fill="black" />
<circle cx="452.0" cy="80.0" r="0.4" fill="black" />
<circle cx="452.0" cy="92.0" r="0.4" fill="black" />
<circle cx="468.0" cy="68.0" r="0.4" fill="black" />
<circle cx="468.0" cy="80.0" r="0.4" fill="black" />
<circle cx="468.0" cy="92.0" r="0.4" fill="black" />
<circle cx="12.0" cy="128.0" r="0.4" fill="black" />
<circle cx="12.0" cy="140.0" r="0.4" fill="black" />
<circle cx="12.0" cy="152.0" r="4.0" fill="black" />
<circle cx="28.0" cy="128.0" r="0.4" fill="black" />
<circle cx="28.0" cy="140.0" r="4.0" fill="black" />
<circle cx="28.0" cy="152.0" r="4.0" fill="black" />
<circle cx="52.0" cy="128.0" r="4.0" fill="black" />
<circle cx="52.0" cy="140.0" r="4.0" fill="black" />
<circle cx="52.0" cy="152.0" r="4.0" fill="black" />
<circle cx="68.0" cy="128.0" r="4.0" fill="black" />
<circle cx="68.0" cy="140.0" r="4.0" fill="black" />
<circle cx="68.0" cy="152.0" r="4.0" fill="black" />
<circle cx="92.0" cy="128.0" r="0.4" fill="black" />
<circle cx="92.0" cy="140.0" r="0.4" fill="black" />
<circle cx="92.0" cy="152.0" r="0.4" fill="black" />
<circle cx="108.0" cy="128.0" r="0.4" fill="black" />
<circle cx="108.0" cy="140.0" r="0.4" fill="black" />
<circle cx="108.0" cy="152.0" r="0.4" fill="black" />
<circle cx="132.0" cy="128.0" r="0.4" fill="black" />
<circle cx="132.0" cy="140.0" r="4.0" fill="black" />
<circle cx="132.0" cy="152.0" r="0.4" fill="black" />
<circle cx="148.0" cy="128.0" r="4.0" fill="black" />
<circle cx="148.0" cy="140.0" r="4.0" fill="black" />
<circle cx="148.0" cy="152.0" r="4.0" fill="black" />
<circle cx="172.0" cy="128.0" r="0.4" fill="black" />
<circle cx="172.0" cy="140.0" r="4.0" fill="black" />
<circle cx="172.0" cy="152.0" r="4.0" fill="black" />
<circle cx="188.0" cy="128.0" r="0.4" fill="black" />
<circle cx="188.0" cy="140.0" r="0.4" fill="black" />
<circle cx="188.0" cy="152.0" r="0.4" fill="black" />
<circle cx="212.0" cy="128.0" r="4.0" fill="black" />
<circle cx="212.0" cy="140.0" r="0.4" fill="black" />
<circle cx="212.0" cy="152.0" r="0.4" fill="black" />
<circle cx="228.0" cy="128.0" r="4.0" fill="black" />
<circle cx="228.0" cy="140.0" r="4.0" fill="black" />
<circle cx="228.0" cy="152.0" r="0.4" fill="black" />
</svg>